<svg id="Layer_35" enable-background="new 0 0 64 64" height="512" viewBox="0 0 64 64" width="512" xmlns="http://www.w3.org/2000/svg"><path d="m3 43.974v15.026c0 1.103.897 2 2 2s2-.897 2-2v-14h-1c-1.13 0-2.162-.391-3-1.026z"/><path d="m6 43h7c1.103 0 2 .897 2 2l-.001 6c0 .534.208 1.036.585 1.414.378.378.881.586 1.415.586 1.104 0 2.001-.897 2.001-2.001v-8.999c0-1.654-1.346-3-3-3h-4v-11h7.941c1.107 0 2.197-.374 3.069-1.053l6.338-4.93c.415-.322.652-.806.652-1.33 0-.93-.757-1.687-1.687-1.687h-.418c-.362 0-.722.12-1.013.338l-6.75 5.062c-.514.386-1.153.6-1.799.6h-8.333c-3.859 0-7 3.141-7 7v8c0 1.654 1.346 3 3 3z"/><path d="m58.984 26.744 1.426 2.303-5.363 5.363-2.303-1.426c-1.057.586-2.173 1.049-3.332 1.381l-.62 2.635h-7.584l-.419-1.78-19.789 13.774v2.005c0 2.206-1.795 4.001-4.001 4.001-1.068 0-2.073-.416-2.829-1.172-.019-.019-.032-.042-.05-.061l-5.12 3.578v1.655c0 .732-.212 1.409-.556 2h52.556v-37.737l-.635.149c-.332 1.159-.795 2.276-1.381 3.332zm-45.984 32.256h-2v-2h2zm4 0h-2v-2h2zm4 0h-2v-2h2zm2.941-7.18-1.143-1.641 1.63-1.135 1.143 1.641zm3.63-2.526-1.143-1.641 13.61-9.474 1.143 1.641zm31.429 9.706h-2v-2h2zm0-4h-2v-2h2zm0-4h-2v-2h2z"/><circle cx="11" cy="18" r="5"/><circle cx="45" cy="19" r="4"/><path d="m45 9c-5.514 0-10 4.486-10 10s4.486 10 10 10 10-4.486 10-10-4.486-10-10-10zm0 16c-3.309 0-6-2.691-6-6s2.691-6 6-6 6 2.691 6 6-2.691 6-6 6z"/><path d="m58.727 16.257-.146-.596c-.336-1.376-.881-2.688-1.617-3.903l-.318-.523 1.229-1.986-3.123-3.123-1.986 1.229-.523-.318c-1.215-.736-2.527-1.281-3.903-1.617l-.596-.146-.536-2.274h-4.416l-.535 2.273-.596.146c-1.376.336-2.688.881-3.903 1.617l-.523.318-1.986-1.229-3.123 3.123 1.229 1.986-.318.523c-.736 1.215-1.281 2.527-1.617 3.903l-.146.596-2.274.536v.277c1.705.323 3 1.819 3 3.617 0 .669-.195 1.299-.523 1.856.339 1.301.86 2.545 1.559 3.7l.318.523-1.229 1.986 3.123 3.123 1.986-1.229.523.318c1.215.736 2.527 1.281 3.903 1.617l.596.146.536 2.274h4.416l.535-2.273.596-.146c1.376-.336 2.688-.881 3.903-1.617l.523-.318 1.986 1.229 3.123-3.123-1.229-1.986.318-.523c.736-1.215 1.281-2.527 1.617-3.903l.146-.596 2.274-.536v-.208-4.208zm-13.727 14.743c-6.617 0-12-5.383-12-12s5.383-12 12-12 12 5.383 12 12-5.383 12-12 12z"/></svg>