<svg id="Capa_1" enable-background="new 0 0 512 512" height="512" viewBox="0 0 512 512" width="512" xmlns="http://www.w3.org/2000/svg"><g><path d="m196 211h120c8.276 0 15-6.724 15-15 0-5.127-2.93-9.858-7.852-12.656l-8.306-4.717 1.055-12.056c.103-25.385-20.083-45.571-44.897-45.571-16.025 0-30.967 8.848-38.994 23.086l-3.56 6.313-7.163 1.128c-11.602 1.846-21.064 10.4-24.111 21.797l-1.729 6.489-5.991 3.032c-4.087 2.066-8.452 6.607-8.452 13.155 0 8.276 6.724 15 15 15z"/><circle cx="256" cy="346" r="15"/><circle cx="136" cy="286" r="15"/><circle cx="376" cy="286" r="15"/><path d="m512 331v-150h-43.92c-2.637-7.544-5.669-14.897-9.038-21.987l30.308-30.293-106.07-106.07-30.293 30.308c-7.09-3.369-14.443-6.401-21.987-9.038v-43.92h-150v43.92c-7.544 2.637-14.897 5.669-21.987 9.038l-30.293-30.308-106.07 106.07 30.308 30.293c-3.369 7.09-6.401 14.443-9.038 21.987h-43.92v150h43.92c2.637 7.544 5.669 14.897 9.038 21.987l-30.308 30.293 106.07 106.07 30.293-30.308c7.09 3.369 14.443 6.401 21.987 9.038v43.92h150v-43.92c7.544-2.637 14.897-5.669 21.987-9.038l30.293 30.308 106.07-106.07-30.308-30.293c3.369-7.09 6.401-14.443 9.038-21.987zm-136 0c-19.53 0-36.024-12.578-42.237-30h-32.763v-60h-30v62.763c17.422 6.213 30 22.707 30 42.237 0 24.814-20.186 45-45 45s-45-20.186-45-45c0-19.53 12.578-36.024 30-42.237v-62.763h-30v60h-32.763c-6.213 17.422-22.707 30-42.237 30-24.814 0-45-20.186-45-45s20.186-45 45-45c19.53 0 36.024 12.578 42.237 30h2.763v-32.763c-17.422-6.213-30-22.707-30-42.237 0-14.648 7.207-28.11 19.16-36.489 6.753-17.534 21.387-30.908 39.404-36.05 13.946-20.186 36.9-32.461 61.436-32.461 40.327 0 73.33 31.992 74.941 71.924 9.566 8.423 15.059 20.244 15.059 33.076 0 19.53-12.578 36.024-30 42.237v32.763h2.763c6.213-17.422 22.707-30 42.237-30 24.814 0 45 20.186 45 45s-20.186 45-45 45z"/></g></svg>