<svg height="448pt" viewBox="-20 0 448 448" width="448pt" xmlns="http://www.w3.org/2000/svg"><path d="m304 232v-184h-272v184c0 4.417969 3.582031 8 8 8h256c4.417969 0 8-3.582031 8-8zm-170.34375-77.65625-11.3125 11.3125-24-24c-3.121094-3.125-3.121094-8.1875 0-11.3125l24-24 11.3125 11.3125-18.34375 18.34375zm25.839844 16.464844-14.992188-5.601563 24-64 14.992188 5.601563zm70.160156-29.152344-24 24-11.3125-11.3125 18.34375-18.34375-18.34375-18.34375 11.3125-11.3125 24 24c3.121094 3.125 3.121094 8.1875 0 11.3125zm0 0"/><path d="m320 160h8v16h-8zm0 0"/><path d="m296 0h-256c-4.417969 0-8 3.582031-8 8v24h272v-24c0-4.417969-3.582031-8-8-8zm-232 24h-16v-16h16zm32 0h-16v-16h16zm32 0h-16v-16h16zm0 0"/><path d="m176 320h-16v-8c0-13.253906 10.746094-24 24-24h184c13.253906 0 24-10.746094 24-24v-64c0-13.253906-10.746094-24-24-24h-24v-16h24c22.082031.027344 39.972656 17.917969 40 40v64c-.027344 22.082031-17.917969 39.972656-40 40h-184c-4.417969 0-8 3.582031-8 8zm0 0"/><path d="m336 336h-336v112h336zm-64 16h16v16h-16zm-32 0h16v16h-16zm0 32h16v16h-16zm-32-32h16v16h-16zm0 32h16v16h-16zm-32-32h16v16h-16zm0 32h16v16h-16zm-32-32h16v16h-16zm0 32h16v16h-16zm-32-32h16v16h-16zm0 32h16v16h-16zm-32-32h16v16h-16zm0 32h16v16h-16zm-32-32h16v16h-16zm0 32h16v16h-16zm-16 48h-16v-16h16zm0-32h-16v-16h16zm0-32h-16v-16h16zm240 64h-224v-16h224zm0-48h16v16h-16zm48 48h-32v-16h32zm0-32h-16v-16h16zm0-32h-16v-16h16zm0 0"/></svg>