<?xml version="1.0" encoding="iso-8859-1"?>
<!-- Generator: Adobe Illustrator 19.0.0, SVG Export Plug-In . SVG Version: 6.00 Build 0)  -->
<svg version="1.1" id="Capa_1" xmlns="http://www.w3.org/2000/svg" xmlns:xlink="http://www.w3.org/1999/xlink" x="0px" y="0px"
	 viewBox="0 0 512 512" style="enable-background:new 0 0 512 512;" xml:space="preserve">
<g>
	<g>
		<path d="M497,91c8.291,0,15-6.709,15-15V15c0-8.291-6.709-15-15-15h-60c-8.291,0-15,6.709-15,15v15H301V15c0-8.291-6.709-15-15-15
			h-60c-8.291,0-15,6.709-15,15v15H90V15c0-8.291-6.709-15-15-15H15C6.709,0,0,6.709,0,15v61c0,8.291,6.709,15,15,15h15v331H15
			c-8.291,0-15,6.709-15,15v60c0,8.291,6.709,15,15,15h60c8.291,0,15-6.709,15-15v-15h121v15c0,8.291,6.709,15,15,15h60
			c8.291,0,15-6.709,15-15v-15h121v15c0,8.291,6.709,15,15,15h60c8.291,0,15-6.709,15-15v-60c0-8.291-6.709-15-15-15h-15V91H497z
			 M452,422h-15c-8.291,0-15,6.709-15,15v15H301v-15c0-8.291-6.709-15-15-15h-60c-8.291,0-15,6.709-15,15v15H90v-15
			c0-8.291-6.709-15-15-15H60V91h15c8.291,0,15-6.709,15-15V61h121v15c0,8.291,6.709,15,15,15h60c8.291,0,15-6.709,15-15V61h121v15
			c0,8.291,6.709,15,15,15h15V422z"/>
	</g>
</g>
<g>
	<g>
		<path d="M407,121H105c-8.291,0-15,6.709-15,15v241c0,8.291,6.709,15,15,15h302c8.291,0,15-6.709,15-15V136
			C422,127.709,415.291,121,407,121z M206.605,275.395c5.859,5.859,5.859,15.352,0,21.211c-5.859,5.859-15.352,5.859-21.211,0
			l-30-30c-5.859-5.859-5.859-15.352,0-21.211l30-30c5.859-5.859,15.352-5.859,21.211,0c5.859,5.859,5.859,15.352,0,21.211
			L187.211,256L206.605,275.395z M299.418,202.709l-60,120c-3.691,7.361-12.647,10.422-20.127,6.709
			c-7.412-3.706-10.415-12.715-6.709-20.127l60-120c3.721-7.397,12.7-10.371,20.127-6.709
			C300.121,186.288,303.124,195.297,299.418,202.709z M356.605,266.605l-30,30c-5.859,5.859-15.352,5.859-21.211,0
			s-5.859-15.352,0-21.211L324.789,256l-19.395-19.395c-5.859-5.859-5.859-15.352,0-21.211s15.352-5.859,21.211,0l30,30
			C362.465,251.254,362.465,260.746,356.605,266.605z"/>
	</g>
</g>
<g>
</g>
<g>
</g>
<g>
</g>
<g>
</g>
<g>
</g>
<g>
</g>
<g>
</g>
<g>
</g>
<g>
</g>
<g>
</g>
<g>
</g>
<g>
</g>
<g>
</g>
<g>
</g>
<g>
</g>
</svg>
