<svg height="511pt" viewBox="0 -16 511.99997 511" width="511pt" xmlns="http://www.w3.org/2000/svg"><path d="m510.050781 401.464844c-1.894531-2.574219-4.902343-4.097656-8.101562-4.097656h-22.238281v-277.457032c0-5.550781-4.5-10.050781-10.050782-10.050781h-86.957031v-99.308594c0-5.550781-4.5-10.050781-10.050781-10.050781h-225.265625c-5.546875 0-10.046875 4.5-10.046875 10.050781v99.308594h-95c-5.550782 0-10.050782 4.5-10.050782 10.050781v277.457032h-22.238281c-3.199219 0-6.207031 1.523437-8.097656 4.097656-1.8945312 2.578125-2.449219 5.902344-1.492187 8.953125 6.308593 20.160156 18.640624 37.429687 35.664062 49.941406s37.191406 19.121094 58.316406 19.121094h323.117188c21.125 0 41.292968-6.609375 58.316406-19.121094s29.355469-29.78125 35.664062-49.941406c.957032-3.050781.402344-6.375-1.488281-8.953125zm-352.613281-380.867188h205.167969v263.152344h-205.167969zm-10.050781 283.25h246.285156c5.550781 0 10.050781-4.496094 10.050781-10.046875s-4.5-10.050781-10.050781-10.050781h-10.96875v-121.597656h46.878906v204.558594h-345.691406v-204.558594h53.449219v121.597656h-12.980469c-5.550781 0-10.050781 4.5-10.050781 10.050781s4.5 10.046875 10.050781 10.046875zm270.171875 155.535156h-323.117188c-29.664062 0-56.074218-16.378906-69.40625-41.917968h17.148438c.054687 0 .105468.007812.15625.007812.054687 0 .105468-.007812.15625-.007812h139.734375v15.609375c0 5.550781 4.5 10.050781 10.050781 10.050781h127.441406c5.546875 0 10.046875-4.5 10.046875-10.050781v-15.609375h33.335938c5.550781 0 10.050781-4.5 10.050781-10.046875 0-5.550781-4.5-10.050781-10.050781-10.050781h-43.382813c-5.550781 0-10.050781 4.5-10.050781 10.050781v15.609375h-107.34375v-15.609375c0-5.550781-4.5-10.050781-10.046875-10.050781h-139.894531v-267.410157h84.953125v12.097657h-63.496094c-5.550781 0-10.050781 4.5-10.050781 10.050781v224.652343c0 5.550782 4.5 10.050782 10.050781 10.050782h365.785156c5.550782 0 10.050782-4.5 10.050782-10.050782v-224.652343c0-5.550781-4.5-10.050781-10.050782-10.050781h-56.925781v-12.097657h76.910156v267.410157h-15.609375c-5.550781 0-10.050781 4.5-10.050781 10.050781 0 5.546875 4.5 10.046875 10.050781 10.046875h25.503906c.050782 0 .101563.007812.15625.007812.050782 0 .101563-.007812.152344-.007812h17.152344c-13.335938 25.539062-39.746094 41.917968-69.410156 41.917968zm0 0"/><path d="m276.917969 397.34375h-36.808594c-5.546875 0-10.046875 4.5-10.046875 10.046875 0 5.550781 4.5 10.050781 10.046875 10.050781h36.808594c5.550781 0 10.050781-4.5 10.050781-10.050781 0-5.546875-4.5-10.046875-10.050781-10.046875zm0 0"/><path d="m401.113281 397.585938-.453125.105468c-5.402344 1.265625-8.757812 6.671875-7.492187 12.078125 1.085937 4.632813 5.214843 7.757813 9.777343 7.757813.757813 0 1.527344-.085938 2.300782-.265625l.449218-.105469c5.40625-1.265625 8.757813-6.671875 7.492188-12.078125-1.265625-5.402344-6.664062-8.757813-12.074219-7.492187zm0 0"/><path d="m337.398438 135.902344h-153.660157c-5.546875 0-10.046875 4.5-10.046875 10.050781 0 5.546875 4.5 10.046875 10.046875 10.046875h153.660157c5.546874 0 10.046874-4.5 10.046874-10.046875 0-5.550781-4.496093-10.050781-10.046874-10.050781zm0 0"/><path d="m183.738281 190.257812h71.257813c5.546875 0 10.046875-4.5 10.046875-10.046874 0-5.550782-4.5-10.050782-10.046875-10.050782h-71.257813c-5.546875 0-10.046875 4.5-10.046875 10.050782 0 5.546874 4.5 10.046874 10.046875 10.046874zm0 0"/><path d="m337.398438 204.417969h-153.660157c-5.546875 0-10.046875 4.5-10.046875 10.050781 0 5.546875 4.5 10.046875 10.046875 10.046875h153.660157c5.546874 0 10.046874-4.5 10.046874-10.046875 0-5.550781-4.496093-10.050781-10.046874-10.050781zm0 0"/><path d="m303.488281 238.679688h-92.96875c-5.546875 0-10.046875 4.5-10.046875 10.046874 0 5.550782 4.5 10.050782 10.046875 10.050782h92.96875c5.550781 0 10.050781-4.5 10.050781-10.050782 0-5.546874-4.5-10.046874-10.050781-10.046874zm0 0"/><path d="m294.429688 190.316406c.765624 0 1.542968-.089844 2.320312-.273437l.453125-.105469c5.402344-1.277344 8.746094-6.691406 7.46875-12.09375-1.277344-5.398438-6.695313-8.746094-12.09375-7.464844l-.449219.105469c-5.402344 1.277344-8.746094 6.691406-7.46875 12.089844 1.09375 4.625 5.214844 7.742187 9.769532 7.742187zm0 0"/><path d="m202.039062 88.246094 14.605469 14.445312c1.960938 1.9375 4.515625 2.90625 7.066407 2.90625 2.589843 0 5.179687-.996094 7.144531-2.984375 3.902343-3.945312 3.867187-10.308593-.078125-14.210937l-7.066406-6.992188v-.734375l7.0625-6.988281c3.945312-3.898438 3.984374-10.261719.082031-14.210938-3.90625-3.949218-10.269531-3.980468-14.214844-.078124l-14.660156 14.5c-2.484375 2.457031-3.515625 6.027343-2.722657 9.429687.445313 1.902344 1.421876 3.597656 2.78125 4.917969zm0 0"/><path d="m296.332031 80.679688v.734374l-7.066406 6.988282c-3.945313 3.902344-3.980469 10.265625-.078125 14.210937 1.964844 1.988281 4.554688 2.984375 7.144531 2.984375 2.550781 0 5.105469-.964844 7.066407-2.902344l14.660156-14.503906c2.484375-2.457031 3.515625-6.023437 2.722656-9.425781-.445312-1.902344-1.421875-3.597656-2.777344-4.917969l-14.609375-14.449218c-3.945312-3.902344-10.308593-3.867188-14.210937.082031-3.90625 3.945312-3.867188 10.308593.078125 14.210937zm0 0"/><path d="m244.40625 116.949219c1.339844.601562 2.738281.886719 4.113281.886719 3.835938 0 7.5-2.210938 9.171875-5.933594l24.011719-53.476563c2.277344-5.0625.015625-11.011719-5.046875-13.285156-5.066406-2.273437-11.011719-.011719-13.285156 5.050781l-24.011719 53.476563c-2.273437 5.0625-.015625 11.007812 5.046875 13.28125zm0 0"/></svg>