<svg height="512" viewBox="0 0 64 64" width="512" xmlns="http://www.w3.org/2000/svg"><g id="configuration-tool-gear-laptop-computer"><path d="m61.27 58.21-5.27-19.34v-27.87a3.009 3.009 0 0 0 -3-3h-8.79l-3.72-3.73a1 1 0 0 0 -1.34-.06l-2.8 2.28-.35-3.59a1.015 1.015 0 0 0 -1-.9h-6a1.015 1.015 0 0 0 -1 .9l-.35 3.59-2.8-2.28a1 1 0 0 0 -1.34.06l-3.72 3.73h-8.79a3.009 3.009 0 0 0 -3 3v27.87l-5.27 19.34a2.989 2.989 0 0 0 2.89 3.79h52.76a2.989 2.989 0 0 0 2.89-3.79zm-36.98-51.88 3.53 2.89a1.019 1.019 0 0 0 1.02.15 1.007 1.007 0 0 0 .61-.83l.45-4.54h4.2l.45 4.54a1.007 1.007 0 0 0 .61.83 1.019 1.019 0 0 0 1.02-.15l3.53-2.89 2.96 2.96-2.89 3.53a1.019 1.019 0 0 0 -.15 1.02 1.007 1.007 0 0 0 .83.61l4.54.45v4.2l-4.54.45a1.007 1.007 0 0 0 -.83.61 1.019 1.019 0 0 0 .15 1.02l2.89 3.53-2.96 2.96-3.53-2.89a1.019 1.019 0 0 0 -1.02-.15 1.007 1.007 0 0 0 -.61.83l-.45 4.54h-4.2l-.45-4.54a1.007 1.007 0 0 0 -.61-.83 1.019 1.019 0 0 0 -1.02.15l-3.53 2.89-2.96-2.96 2.89-3.53a1.019 1.019 0 0 0 .15-1.02 1.007 1.007 0 0 0 -.83-.61l-4.54-.45v-4.2l4.54-.45a1.007 1.007 0 0 0 .83-.61 1.019 1.019 0 0 0 -.15-1.02l-2.89-3.53zm-14.29 4.67a1 1 0 0 1 1-1h8.32l2.17 2.65-3.59.35a1.015 1.015 0 0 0 -.9 1v6a1.015 1.015 0 0 0 .9 1l3.59.35-2.28 2.8a1 1 0 0 0 .06 1.34l4.24 4.24a1 1 0 0 0 1.34.06l2.8-2.28.35 3.59a1.015 1.015 0 0 0 1 .9h6a1.015 1.015 0 0 0 1-.9l.35-3.59 2.8 2.28a1 1 0 0 0 1.34-.06l4.24-4.24a1 1 0 0 0 .06-1.34l-2.28-2.8 3.59-.35a1.015 1.015 0 0 0 .9-1v-6a1.015 1.015 0 0 0 -.9-1l-3.59-.35 2.17-2.65h8.32a1 1 0 0 1 1 1v27h-44zm49.18 48.61a.99.99 0 0 1 -.8.39h-52.76a.99.99 0 0 1 -.8-.39 1.02 1.02 0 0 1 -.17-.88l5.11-18.73h44.48l5.11 18.73a1.02 1.02 0 0 1 -.17.88z"/><path d="m40.97 52.757a1 1 0 0 0 -.97-.757h-16a1 1 0 0 0 -.97.757l-1 4a1 1 0 0 0 .97 1.243h18a1 1 0 0 0 .97-1.243zm-16.689 3.243.5-2h14.438l.5 2z"/><path d="m27 34h10v2h-10z"/><path d="m12 42h4v2h-4z"/><path d="m18 42h4v2h-4z"/><path d="m24 42h4v2h-4z"/><path d="m36 42h4v2h-4z"/><path d="m42 42h4v2h-4z"/><path d="m48 42h4v2h-4z"/><path d="m30 42h4v2h-4z"/><path d="m12 46h4v2h-4z"/><path d="m18 46h4v2h-4z"/><path d="m24 46h4v2h-4z"/><path d="m36 46h4v2h-4z"/><path d="m42 46h4v2h-4z"/><path d="m48 46h4v2h-4z"/><path d="m30 46h4v2h-4z"/><path d="m32 23a6 6 0 1 0 -6-6 6.006 6.006 0 0 0 6 6zm0-10a4 4 0 1 1 -4 4 4 4 0 0 1 4-4z"/></g></svg>