<svg height="512pt" viewBox="0 -26 512 512" width="512pt" xmlns="http://www.w3.org/2000/svg"><g fill="#020202"><path d="m256 230c38.597656 0 70-31.402344 70-70 0-38.332031-31.179688-70-70-70-38.765625 0-70 31.613281-70 70 0 38.597656 31.402344 70 70 70zm29.964844-110h-59.929688c8.355469-6.277344 18.734375-10 29.964844-10s21.609375 3.722656 29.964844 10zm-75.777344 20h91.625c2.683594 6.128906 4.1875 12.890625 4.1875 20 0 27.570312-22.429688 50-50 50s-50-22.429688-50-50c0-7.109375 1.5-13.871094 4.1875-20zm0 0"/><path d="m266 450c0 5.523438-4.476562 10-10 10s-10-4.476562-10-10 4.476562-10 10-10 10 4.476562 10 10zm0 0"/><path d="m502 370h-20v-220c0-16.542969-13.457031-30-30-30-15.335938 0-57.316406 0-72.75 0-2.101562-6.449219-4.726562-12.746094-7.84375-18.835938l18.945312-18.941406c3.90625-3.90625 3.90625-10.238281 0-14.144531l-42.429687-42.429687c-3.90625-3.90625-10.238281-3.90625-14.144531 0l-18.941406 18.941406c-6.089844-3.117188-12.386719-5.738282-18.835938-7.839844v-26.75c0-5.523438-4.476562-10-10-10h-60c-5.523438 0-10 4.476562-10 10v26.75c-6.449219 2.101562-12.746094 4.726562-18.835938 7.84375l-18.945312-18.945312c-3.902344-3.90625-10.234375-3.90625-14.140625 0l-42.429687 42.429687c-3.90625 3.90625-3.90625 10.238281 0 14.144531l18.941406 18.941406c-3.117188 6.089844-5.738282 12.386719-7.84375 18.835938-15.433594 0-57.414063 0-72.75 0-16.539063 0-30 13.460938-30 30v220h-19.996094c-5.523438 0-10 4.476562-10 10v25c0 30.328125 24.671875 55 55 55h156c5.523438 0 10-4.476562 10-10s-4.476562-10-10-10h-156c-19.300781 0-35-15.699219-35-35v-15h137.265625c4.453125 17.234375 20.128906 30 38.734375 30h120c18.605469 0 34.28125-12.765625 38.734375-30h137.265625v15c0 19.300781-15.699219 35-35 35h-156c-5.523438 0-10 4.476562-10 10s4.476562 10 10 10h156c30.328125 0 55-24.671875 55-55v-25c0-5.523438-4.476562-10-10-10zm-361.761719-230c4.558594 0 8.539063-3.078125 9.683594-7.488281 2.53125-9.761719 6.457031-19.195313 11.664063-28.035157 2.3125-3.925781 1.679687-8.921874-1.542969-12.148437l-17.179688-17.179687 28.289063-28.285157 17.175781 17.175781c3.226563 3.226563 8.222656 3.859376 12.148437 1.546876 8.84375-5.210938 18.273438-9.136719 28.035157-11.667969 4.410156-1.144531 7.488281-5.121094 7.488281-9.679688v-24.238281h40v24.238281c0 4.558594 3.082031 8.539063 7.488281 9.683594 9.761719 2.53125 19.195313 6.457031 28.035157 11.664063 3.929687 2.316406 8.925781 1.679687 12.148437-1.542969l17.179687-17.179688 28.289063 28.289063-17.179687 17.175781c-3.226563 3.226563-3.859376 8.222656-1.546876 12.148437 5.210938 8.84375 9.136719 18.273438 11.667969 28.035157 1.144531 4.410156 5.125 7.488281 9.679688 7.488281h24.238281v40h-24.238281c-4.558594 0-8.539063 3.082031-9.683594 7.488281-2.53125 9.761719-6.457031 19.195313-11.664063 28.035157-2.3125 3.929687-1.679687 8.925781 1.542969 12.148437l17.179688 17.179687-28.289063 28.289063-17.175781-17.179687c-3.226563-3.222657-8.222656-3.859376-12.148437-1.546876-8.84375 5.210938-18.273438 9.136719-28.035157 11.667969-4.410156 1.144531-7.488281 5.125-7.488281 9.679688v24.238281h-40v-24.238281c0-4.558594-3.082031-8.539063-7.488281-9.683594-9.761719-2.53125-19.195313-6.457031-28.035157-11.664063-3.929687-2.316406-8.925781-1.679687-12.148437 1.542969l-17.179687 17.179688-28.289063-28.289063 17.179687-17.175781c3.226563-3.226563 3.859376-8.222656 1.546876-12.148437-5.210938-8.84375-9.136719-18.273438-11.667969-28.035157-1.144531-4.410156-5.125-7.488281-9.679688-7.488281h-24.238281v-40zm205.761719 230c-5.523438 0-10 4.476562-10 10 0 11.027344-8.972656 20-20 20h-120c-11.027344 0-20-8.972656-20-20 0-5.523438-4.476562-10-10-10h-116v-220c0-5.515625 4.484375-10 10-10h36v50c0 5.523438 4.476562 10 10 10h26.75c2.101562 6.449219 4.726562 12.746094 7.84375 18.835938l-18.945312 18.941406c-3.90625 3.90625-3.90625 10.238281 0 14.144531l42.429687 42.429687c3.90625 3.90625 10.238281 3.90625 14.144531 0l18.941406-18.941406c6.089844 3.117188 12.386719 5.738282 18.835938 7.839844v26.75c0 5.523438 4.476562 10 10 10h60c5.523438 0 10-4.476562 10-10v-26.75c6.449219-2.101562 12.746094-4.726562 18.835938-7.84375l18.945312 18.945312c3.902344 3.90625 10.234375 3.90625 14.140625 0l42.429687-42.429687c3.90625-3.90625 3.90625-10.238281 0-14.144531l-18.941406-18.941406c3.117188-6.089844 5.738282-12.386719 7.84375-18.835938h26.746094c5.523438 0 10-4.476562 10-10v-50h36c5.515625 0 10 4.484375 10 10v220zm0 0"/></g></svg>