<svg height="512pt" viewBox="-26 0 512 512.002" width="512pt" xmlns="http://www.w3.org/2000/svg"><path d="m178.621094 26.484375c5.523437 0 10-4.476563 10-10v-6.484375c0-5.523438-4.476563-10-10-10-5.519532 0-10 4.476562-10 10v6.484375c0 5.523437 4.480468 10 10 10zm0 0"/><path d="m88.894531 43.207031c1.851563 3.207031 5.214844 5 8.671875 5 1.695313 0 3.414063-.429687 4.988282-1.339843 4.78125-2.761719 6.421874-8.878907 3.660156-13.660157l-3.242188-5.617187c-2.757812-4.78125-8.875-6.421875-13.660156-3.660156-4.78125 2.761718-6.421875 8.878906-3.660156 13.660156zm0 0"/><path d="m43.207031 88.894531-5.613281-3.242187c-4.78125-2.761719-10.898438-1.125-13.660156 3.660156-2.761719 4.78125-1.125 10.894531 3.660156 13.65625l5.613281 3.242188c1.574219.910156 3.292969 1.34375 4.992188 1.34375 3.453125 0 6.816406-1.792969 8.667969-5.003907 2.761718-4.78125 1.125-10.898437-3.660157-13.65625zm0 0"/><path d="m16.484375 168.621094h-6.484375c-5.519531 0-10 4.476562-10 10 0 5.523437 4.480469 10 10 10h6.484375c5.523437 0 10-4.476563 10-10 0-5.523438-4.476563-10-10-10zm0 0"/><path d="m330.757812 178.621094c0 5.523437 4.480469 10 10 10h6.484376c5.523437 0 10-4.476563 10-10 0-5.523438-4.476563-10-10-10h-6.484376c-5.523437 0-10 4.476562-10 10zm0 0"/><path d="m319.046875 107.554688c1.695313 0 3.414063-.433594 4.988281-1.34375l5.617188-3.242188c4.78125-2.757812 6.421875-8.875 3.660156-13.65625-2.757812-4.785156-8.875-6.421875-13.660156-3.660156l-5.617188 3.242187c-4.78125 2.757813-6.421875 8.875-3.660156 13.65625 1.851562 3.210938 5.214844 5.003907 8.671875 5.003907zm0 0"/><path d="m254.691406 46.867188c1.574219.910156 3.292969 1.339843 4.988282 1.339843 3.457031 0 6.816406-1.792969 8.671874-5l3.242188-5.617187c2.761719-4.78125 1.121094-10.898438-3.660156-13.660156-4.785156-2.761719-10.902344-1.121094-13.660156 3.660156l-3.242188 5.617187c-2.761719 4.78125-1.125 10.898438 3.660156 13.660157zm0 0"/><path d="m450 328.667969h-23.824219c-2.515625-8.789063-6.015625-17.234375-10.464843-25.238281l16.851562-16.855469c1.875-1.875 2.929688-4.417969 2.929688-7.070313s-1.054688-5.195312-2.929688-7.070312l-32.996094-32.996094c-3.90625-3.90625-10.238281-3.90625-14.144531 0l-16.851563 16.851562c-8.003906-4.445312-16.449218-7.945312-25.238281-10.460937v-23.824219c0-5.523437-4.476562-10-10-10h-41.375c3.125-10.6875 4.753907-21.902344 4.753907-33.382812 0-65.113282-52.972657-118.089844-118.089844-118.089844-14.148438 0-28 2.484375-41.171875 7.386719-5.179688 1.925781-7.8125 7.683593-5.886719 12.859375 1.925781 5.175781 7.683594 7.8125 12.859375 5.882812 10.933594-4.066406 22.4375-6.128906 34.199219-6.128906 54.085937 0 98.089844 44.003906 98.089844 98.089844 0 27.527344-11.273438 53.21875-31.203126 71.746094l-10.933593-10.933594c-1.875-1.875-4.417969-2.925782-7.070313-2.925782s-5.195312 1.050782-7.070312 2.925782l-33 33c-3.902344 3.90625-3.902344 10.238281 0 14.144531l7.355468 7.351563h-51.203124v-17.027344c0-3.90625-2.277344-7.457032-5.828126-9.085938-34.765624-15.957031-57.226562-50.96875-57.226562-89.195312 0-11.765625 2.0625-23.273438 6.132812-34.207032 1.925782-5.175781-.707031-10.933593-5.882812-12.859374-5.171875-1.925782-10.933594.707031-12.859375 5.882812-4.902344 13.171875-7.390625 27.027344-7.390625 41.183594 0 43.847656 24.546875 84.175781 63.054688 104.5v56.84375c0 22.082031 15.632812 40.578125 36.414062 45.011718v.359376c0 5.523437 4.476562 10 10 10h23.824219c2.515625 8.789062 6.015625 17.230468 10.464843 25.234374l-16.855468 16.855469c-3.90625 3.90625-3.90625 10.238281 0 14.140625l33 33c3.90625 3.902344 10.234375 3.902344 14.140625 0l16.855469-16.855468c8.003906 4.449218 16.449218 7.949218 25.234374 10.464843v23.828125c0 5.519532 4.480469 10 10 10h46.667969c5.523438 0 10-4.480468 10-10v-23.828125c8.789063-2.515625 17.230469-6.015625 25.234375-10.464843l16.855469 16.855468c3.90625 3.902344 10.238281 3.902344 14.144531 0l32.996094-33c3.90625-3.902344 3.90625-10.234375 0-14.140625l-16.855469-16.859375c4.445313-8 7.945313-16.445312 10.460938-25.230468h23.832031c5.519531 0 10-4.476563 10-10v-46.667969c0-5.523438-4.480469-10-10-10zm-173.332031-84.125v1.285156c-.378907.105469-.75.226563-1.125.339844.378906-.542969.753906-1.082031 1.125-1.625zm-133.082031 95.417969v-26.03125h55.539062c-2.078125 4.789062-3.855469 9.703124-5.292969 14.738281h-23.832031c-5.523438 0-10 4.476562-10 10v25.476562c-9.605469-3.832031-16.414062-13.222656-16.414062-24.183593zm296.414062 35.371093h-21.636719c-4.714843 0-8.789062 3.296875-9.777343 7.90625-2.554688 11.921875-7.21875 23.175781-13.863282 33.449219-2.5625 3.957031-2.007812 9.167969 1.324219 12.503906l15.304687 15.304688-18.855468 18.855468-15.304688-15.304687c-3.335937-3.335937-8.546875-3.886719-12.503906-1.324219-10.273438 6.644532-21.527344 11.3125-33.449219 13.867188-4.613281.992187-7.90625 5.0625-7.90625 9.78125v21.628906h-26.664062v-21.628906c0-4.714844-3.292969-8.789063-7.902344-9.777344-11.925781-2.558594-23.179687-7.222656-33.453125-13.871094-3.957031-2.558594-9.167969-2.007812-12.503906 1.324219l-15.304688 15.304687-18.855468-18.855468 15.304687-15.304688c3.335937-3.332031 3.886719-8.542968 1.324219-12.503906-6.644532-10.273438-11.3125-21.527344-13.871094-33.449219-.984375-4.613281-5.0625-7.90625-9.773438-7.90625h-21.628906v-26.664062h21.632813c4.714843 0 8.792969-3.296875 9.78125-7.90625 2.554687-11.925781 7.21875-23.179688 13.863281-33.449219 2.5625-3.957031 2.007812-9.167969-1.324219-12.503906l-15.308593-15.304688 18.859374-18.855468 10.328126 10.332031c.011718.007812.019531.019531.03125.03125l4.945312 4.941406c3.335938 3.335937 8.542969 3.886719 12.503906 1.324219 10.273438-6.644532 21.527344-11.3125 33.449219-13.871094 4.609375-.984375 7.902344-5.0625 7.902344-9.773438v-21.628906h26.664062v21.628906c0 4.714844 3.292969 8.789063 7.90625 9.777344 11.925781 2.554688 23.179688 7.222656 33.453125 13.867188 3.957032 2.5625 9.167969 2.007812 12.5-1.324219l15.304688-15.304687 18.855468 18.855468-15.304687 15.304688c-3.332031 3.332031-3.882813 8.542968-1.324219 12.503906 6.648438 10.269531 11.316406 21.527344 13.871094 33.449219.988281 4.609375 5.0625 7.90625 9.777344 7.90625h21.628906zm0 0"/><path d="m310 312c-27.570312 0-50 22.429688-50 50s22.429688 50 50 50 50-22.429688 50-50-22.429688-50-50-50zm0 80c-16.542969 0-30-13.457031-30-30s13.457031-30 30-30 30 13.457031 30 30-13.457031 30-30 30zm0 0"/><path d="m310.003906 352h-.007812c-5.519532 0-9.996094 4.476562-9.996094 10s4.480469 10 10.003906 10c5.523438 0 10-4.476562 10-10s-4.476562-10-10-10zm0 0"/><path d="m95.125 95.113281-.003906.003907c-3.90625 3.90625-3.902344 10.234374.003906 14.140624 1.949219 1.953126 4.507812 2.929688 7.066406 2.929688 2.5625 0 5.125-.976562 7.074219-2.929688 3.90625-3.90625 3.90625-10.238281 0-14.144531-3.902344-3.902343-10.234375-3.902343-14.140625 0zm0 0"/></svg>