<svg height="512pt" viewBox="0 0 512 512" width="512pt" xmlns="http://www.w3.org/2000/svg"><path d="m486.398438 409.601562h-17.066407v-281.601562c0-14.136719-11.460937-25.601562-25.597656-25.601562h-17.066406c-4.714844 0-8.535157 3.820312-8.535157 8.535156 0 4.710937 3.820313 8.53125 8.535157 8.53125h17.066406c4.710937 0 8.53125 3.824218 8.53125 8.535156v247.464844h-392.53125v-247.464844c0-4.710938 3.820313-8.535156 8.53125-8.535156h17.066406c4.714844 0 8.535157-3.820313 8.535157-8.53125 0-4.714844-3.820313-8.535156-8.535157-8.535156h-17.066406c-14.136719 0-25.597656 11.464843-25.597656 25.601562v281.601562h-17.066407c-14.140624 0-25.601562 11.460938-25.601562 25.597657 0 47.378906 35.96875 76.800781 93.867188 76.800781h324.265624c57.898438 0 93.867188-29.421875 93.867188-76.800781 0-14.136719-11.460938-25.597657-25.601562-25.597657zm-426.664063-17.066406h392.53125v17.066406h-392.53125zm116.71875 59.730469-10.242187-25.597656h81.253906v25.597656zm88.082031-25.597656h81.261719l-10.242187 25.597656h-71.019532zm153.597656 68.265625h-324.265624c-18.015626 0-76.800782-4.308594-76.800782-59.734375 0-4.710938 3.820313-8.53125 8.535156-8.53125h122.222657l12.796875 31.921875c2.5625 6.492187 8.839844 10.757812 15.824218 10.742187h159.109376c6.988281.023438 13.277343-4.234375 15.847656-10.734375l12.773437-31.929687h122.222657c4.714843 0 8.535156 3.820312 8.535156 8.53125 0 55.46875-58.785156 59.734375-76.800782 59.734375zm0 0"/><path d="m124.636719 118.253906c-7.957031 1.625-13.679688 8.613282-13.703125 16.734375v20.15625c.023437 8.125 5.75 15.113281 13.710937 16.734375l25.125 5.121094c2.128907 7.183594 5.019531 14.125 8.617188 20.699219l-14.171875 21.273437c-4.535156 6.773438-3.648438 15.804688 2.113281 21.566406l14.242187 14.230469c5.761719 5.753907 14.78125 6.640625 21.546876 2.117188l21.335937-14.085938c6.601563 3.546875 13.558594 6.382813 20.761719 8.464844l5.015625 25.164063c1.621093 7.941406 8.585937 13.660156 16.691406 13.703124h20.15625c8.125-.023437 15.113281-5.75 16.734375-13.710937l5.121094-25.125c7.179687-2.132813 14.113281-5.023437 20.683594-8.617187l21.246093 14.207031c6.777344 4.511719 15.796875 3.628906 21.566407-2.117188l14.230468-14.230469c5.761719-5.761718 6.644532-14.785156 2.117188-21.558593l-14.085938-21.332031c3.53125-6.570313 6.390625-13.484376 8.53125-20.632813l-8.183594-2.421875 8.148438 2.292969 25.167969-5.015625c7.957031-1.621094 13.683593-8.605469 13.710937-16.726563v-20.15625c-.023437-8.125-5.75-15.113281-13.710937-16.734375l-25.125-5.117187c-2.128907-7.1875-5.019531-14.128907-8.617188-20.703125l14.171875-21.273438c4.53125-6.769531 3.644532-15.796875-2.113281-21.554687l-14.199219-14.242188c-5.769531-5.75-14.796875-6.621093-21.558594-2.082031l-21.332031 14.085938c-6.601562-3.546876-13.558593-6.386719-20.761719-8.464844l-5.015624-25.164063c-1.609376-7.96875-8.597657-13.707031-16.726563-13.738281h-20.15625c-8.125.0234375-15.113281 5.75-16.734375 13.714844l-5.121094 25.121094c-7.183594 2.128906-14.125 5.019531-20.699218 8.617187l-21.273438-14.171875c-6.769531-4.53125-15.796875-3.644531-21.554688 2.113281l-14.242187 14.210938c-5.746094 5.765625-6.617187 14.785156-2.082031 21.546875l14.085937 21.332031c-3.546875 6.601563-6.386719 13.5625-8.464843 20.761719zm41.5-.296875c1.792969-6.039062 4.199219-11.878906 7.183593-17.425781 3.03125-5.554688 2.742188-12.328125-.75-17.605469l-14.207031-21.253906 14.242188-14.242187 21.253906 14.214843c5.285156 3.476563 12.054687 3.765625 17.613281.742188 5.550782-2.988281 11.390625-5.398438 17.433594-7.191407 6.101562-1.761718 10.71875-6.761718 11.988281-12.980468l5.027344-25.148438h20.15625l5.027344 25.140625c1.265625 6.230469 5.894531 11.238281 12.003906 12.996094 6.039063 1.792969 11.878906 4.199219 17.425781 7.183594 5.554688 3.03125 12.328125 2.742187 17.605469-.75l21.253906-14.207031 14.242188 14.242187-14.214844 21.253906c-3.476563 5.285157-3.761719 12.054688-.742187 17.613281 2.988281 5.550782 5.398437 11.390626 7.195312 17.433594 1.757812 6.101563 6.757812 10.71875 12.976562 11.988282l25.148438 5.027343v20.15625l-25.140625 5.027344c-6.222656 1.265625-11.226563 5.886719-12.984375 11.988281-1.796875 6.039063-4.203125 11.878906-7.1875 17.425782-3.03125 5.550781-2.742188 12.328124.75 17.601562l14.210938 21.257812-14.242188 14.242188-21.257812-14.214844c-5.28125-3.484375-12.054688-3.769531-17.613282-.742187-5.550781 2.976562-11.390625 5.386719-17.425781 7.191406-6.101563 1.757813-10.722656 6.757813-11.996094 12.980469l-5.035156 25.164062h-20.15625l-5.027344-25.140625c-1.265625-6.230469-5.894531-11.238281-12.003906-12.996093-6.035156-1.800782-11.875-4.207032-17.425781-7.183594-2.535156-1.363282-5.367188-2.078125-8.242188-2.082032-3.339844-.007812-6.609375.980469-9.386718 2.832032l-21.257813 14.207031-14.242187-14.238281 14.214843-21.257813c3.480469-5.285156 3.765625-12.054687.746094-17.613281-2.988281-5.550781-5.398437-11.390625-7.195313-17.433594-1.761718-6.097656-6.761718-10.71875-12.980468-11.988281l-25.121094-5.027344v-20.15625l25.140625-5.027343c6.230469-1.265626 11.238281-5.894532 12.996094-12.003907zm0 0"/><path d="m256 213.332031c37.703125 0 68.265625-30.5625 68.265625-68.265625s-30.5625-68.265625-68.265625-68.265625-68.265625 30.5625-68.265625 68.265625c.042969 37.683594 30.582031 68.222656 68.265625 68.265625zm0-119.464843c28.277344 0 51.199219 22.921874 51.199219 51.199218s-22.921875 51.199219-51.199219 51.199219-51.199219-22.921875-51.199219-51.199219c.027344-28.265625 22.933594-51.171875 51.199219-51.199218zm0 0"/><path d="m264.535156 145.066406c0 4.714844-3.824218 8.535156-8.535156 8.535156s-8.535156-3.820312-8.535156-8.535156c0-4.710937 3.824218-8.53125 8.535156-8.53125s8.535156 3.820313 8.535156 8.53125zm0 0"/><path d="m409.601562 452.265625c0 4.714844-3.820312 8.535156-8.535156 8.535156-4.710937 0-8.53125-3.820312-8.53125-8.535156 0-4.710937 3.820313-8.53125 8.53125-8.53125 4.714844 0 8.535156 3.820313 8.535156 8.53125zm0 0"/><path d="m443.734375 452.265625c0 4.714844-3.820313 8.535156-8.535156 8.535156-4.710938 0-8.53125-3.820312-8.53125-8.535156 0-4.710937 3.820312-8.53125 8.53125-8.53125 4.714843 0 8.535156 3.820313 8.535156 8.53125zm0 0"/></svg>