<svg height="480pt" viewBox="0 0 480 480" width="480pt" xmlns="http://www.w3.org/2000/svg"><path d="m440 64h-64v16h64c13.253906 0 24 10.746094 24 24v200h-448v-200c0-13.253906 10.746094-24 24-24h64v-16h-64c-22.082031.027344-39.9726562 17.917969-40 40v240c.0273438 22.082031 17.917969 39.972656 40 40h134.9375l-6 48h-8.9375c-8.835938 0-16 7.164062-16 16v16h-16v16h224v-16h-16v-16c0-8.835938-7.164062-16-16-16h-8.9375l-6-48h134.9375c22.082031-.027344 39.972656-17.917969 40-40v-240c-.027344-22.082031-17.917969-39.972656-40-40zm-120 400h-160v-16h160zm-25.0625-32h-109.875l6-48h97.875zm145.0625-64h-400c-13.253906 0-24-10.746094-24-24v-24h448v24c0 13.253906-10.746094 24-24 24zm0 0"/><path d="m424 336h16v16h-16zm0 0"/><path d="m369.519531 192c2.859375 0 5.5-1.523438 6.929688-4 1.429687-2.476562 1.429687-5.523438 0-8-9.5625-16.589844-26.945313-27.136719-46.078125-27.945312-19.128906-.8125-37.34375 8.222656-48.273438 23.945312h-84.195312c-10.929688-15.722656-29.144532-24.757812-48.273438-23.945312-19.132812.808593-36.515625 11.355468-46.078125 27.945312-1.429687 2.476562-1.429687 5.523438 0 8 1.429688 2.476562 4.070313 4 6.929688 4h27.75l5.335937 16-5.335937 16h-27.75c-2.859375 0-5.5 1.523438-6.929688 4-1.429687 2.476562-1.429687 5.523438 0 8 9.5625 16.589844 26.945313 27.136719 46.078125 27.945312 19.128906.8125 37.34375-8.222656 48.273438-23.945312h84.195312c10.929688 15.722656 29.144532 24.757812 48.273438 23.945312 19.132812-.808593 36.515625-11.355468 46.078125-27.945312 1.429687-2.476562 1.429687-5.523438 0-8-1.429688-2.476562-4.070313-4-6.929688-4h-27.75l-5.335937-16 5.335937-16zm-49.105469 18.527344 8 24c1.089844 3.265625 4.144532 5.46875 7.585938 5.472656h15.921875c-9.132813 6.867188-20.773437 9.484375-31.964844 7.1875-11.195312-2.292969-20.863281-9.28125-26.558593-19.1875-1.425782-2.472656-4.0625-3.996094-6.917969-4h-92.960938c-2.855469.003906-5.492187 1.527344-6.917969 4-5.695312 9.90625-15.363281 16.894531-26.558593 19.1875-11.191407 2.296875-22.832031-.320312-31.964844-7.1875h15.921875c3.441406-.003906 6.496094-2.207031 7.585938-5.472656l8-24c.558593-1.636719.558593-3.417969 0-5.054688l-8-24c-1.089844-3.265625-4.144532-5.46875-7.585938-5.472656h-15.921875c9.132813-6.867188 20.773437-9.484375 31.964844-7.1875 11.195312 2.292969 20.863281 9.28125 26.558593 19.1875 1.425782 2.472656 4.0625 3.996094 6.917969 4h92.960938c2.855469-.003906 5.492187-1.527344 6.917969-4 5.695312-9.90625 15.363281-16.894531 26.558593-19.1875 11.191407-2.296875 22.832031.320312 31.964844 7.1875h-15.921875c-3.441406.003906-6.496094 2.207031-7.585938 5.472656l-8 24c-.558593 1.636719-.558593 3.417969 0 5.054688zm0 0"/><path d="m139.375 94.824219c-2.011719 4.152343-3.769531 8.429687-5.253906 12.800781l-31.257813 4.464844c-3.9375.5625-6.859375 3.933594-6.863281 7.910156v32h16v-25.0625l29.359375-4.195312c3.105469-.445313 5.667969-2.664063 6.542969-5.679688 1.929687-6.667969 4.574218-13.105469 7.898437-19.199219 1.507813-2.753906 1.269531-6.136719-.617187-8.648437l-17.757813-23.6875 24.125-24.128906 23.6875 17.800781c2.511719 1.886719 5.894531 2.125 8.648438.617187 6.097656-3.320312 12.535156-5.964844 19.203125-7.894531 3.011718-.882813 5.234375-3.445313 5.679687-6.554687l4.167969-29.367188h34.125l4.183594 29.351562c.445312 3.109376 2.667968 5.671876 5.683594 6.550782 6.664062 1.933594 13.101562 4.578125 19.199218 7.898437 2.746094 1.507813 6.121094 1.273438 8.632813-.601562l23.6875-17.757813 24.125 24.125-17.773438 23.671875c-1.886719 2.511719-2.125 5.894531-.617187 8.648438 3.320312 6.09375 5.96875 12.535156 7.894531 19.203125.878906 3.011718 3.4375 5.230468 6.546875 5.679687l29.359375 4.191407v25.039062h16v-32c0-3.980469-2.925781-7.355469-6.863281-7.921875l-31.257813-4.460937c-1.484375-4.371094-3.242187-8.648438-5.253906-12.800782l18.925781-25.214844c2.390625-3.183593 2.078125-7.640624-.734375-10.457031l-33.953125-33.9375c-2.8125-2.808593-7.265625-3.125-10.449218-.742187l-25.230469 18.910156c-4.152344-2.015625-8.429688-3.769531-12.800781-5.253906l-4.445313-31.25c-.5625-3.941406-3.9375-6.871094-7.921875-6.871094h-48c-3.984375 0-7.359375 2.929688-7.921875 6.871094l-4.460937 31.25c-4.371094 1.484375-8.648438 3.238281-12.800782 5.253906l-25.214844-18.910156c-3.183593-2.382813-7.636718-2.066406-10.449218.742187l-33.953125 33.945313c-2.8125 2.816406-3.125 7.273437-.734375 10.457031zm0 0"/><path d="m232 32h16v16h-16zm0 0"/><path d="m155.152344 70.460938 11.3125-11.3125 11.3125 11.3125-11.3125 11.316406zm0 0"/><path d="m302.226562 70.464844 11.3125-11.3125 11.316407 11.3125-11.316407 11.316406zm0 0"/><path d="m176 144h16c0-26.507812 21.492188-48 48-48s48 21.492188 48 48h16c0-35.347656-28.652344-64-64-64s-64 28.652344-64 64zm0 0"/></svg>