<svg height="448pt" viewBox="0 0 448 448" width="448pt" xmlns="http://www.w3.org/2000/svg"><path d="m216.28125 213.894531 12.976562-47.566406-41.105468 54.808594 39.421875 19.664062c3.289062 1.640625 5.039062 5.308594 4.242187 8.894531l-8.527344 38.351563 36.277344-45.359375-39.140625-19.488281c-3.433593-1.707031-5.171875-5.609375-4.144531-9.304688zm0 0"/><path d="m224 88c-75.109375 0-136 60.890625-136 136s60.890625 136 136 136 136-60.890625 136-136c-.082031-75.074219-60.925781-135.917969-136-136zm54.246094 157-64 80c-2.320313 2.917969-6.351563 3.84375-9.710938 2.230469-3.363281-1.609375-5.167968-5.328125-4.351562-8.964844l14.648437-65.90625-42.398437-21.199219c-2.136719-1.058594-3.691406-3.015625-4.238282-5.335937-.542968-2.320313-.027343-4.765625 1.414063-6.664063l72-96c2.300781-3.074218 6.464844-4.078125 9.914063-2.390625 3.453124 1.6875 5.214843 5.589844 4.203124 9.292969l-22.277343 81.714844 42.125 21.023437c2.164062 1.078125 3.726562 3.078125 4.242187 5.441407.519532 2.359374-.058594 4.832031-1.570312 6.71875zm0 0"/><path d="m402.710938 180.207031c-4.425782-18.203125-11.628907-35.617187-21.359376-51.632812-1.726562-2.835938-1.519531-6.449219.519532-9.070313l23.816406-30.609375-46.582031-46.574219-30.609375 23.808594c-2.621094 2.039063-6.234375 2.246094-9.070313.519532-16.015625-9.730469-33.429687-16.933594-51.632812-21.359376-3.226563-.789062-5.632813-3.488281-6.039063-6.785156l-4.816406-38.503906h-65.875l-4.796875 38.503906c-.410156 3.296875-2.816406 5.996094-6.042969 6.785156-18.203125 4.425782-35.617187 11.628907-51.628906 21.359376-2.839844 1.726562-6.453125 1.519531-9.074219-.519532l-30.625-23.808594-46.574219 46.574219 23.808594 30.609375c2.039063 2.621094 2.246094 6.234375.519532 9.070313-9.730469 16.015625-16.933594 33.429687-21.359376 51.632812-.789062 3.226563-3.488281 5.632813-6.785156 6.039063l-38.503906 4.816406v65.875l38.503906 4.796875c3.296875.410156 5.996094 2.816406 6.785156 6.042969 4.425782 18.203125 11.628907 35.617187 21.359376 51.628906 1.726562 2.839844 1.519531 6.453125-.519532 9.074219l-23.816406 30.625 46.582031 46.574219 30.609375-23.808594c2.621094-2.039063 6.234375-2.246094 9.070313-.519532 16.015625 9.730469 33.429687 16.933594 51.632812 21.359376 3.226563.789062 5.632813 3.488281 6.039063 6.785156l4.800781 38.503906h65.875l4.796875-38.503906c.410156-3.296875 2.816406-5.996094 6.042969-6.785156 18.203125-4.425782 35.617187-11.628907 51.628906-21.359376 2.84375-1.714843 6.445313-1.507812 9.074219.519532l30.605468 23.808594 46.578126-46.574219-23.808594-30.609375c-2.039063-2.621094-2.246094-6.234375-.519532-9.070313 9.726563-16.015625 16.933594-33.429687 21.359376-51.632812.789062-3.226563 3.488281-5.632813 6.785156-6.039063l38.503906-4.800781v-65.890625l-38.503906-4.796875c-3.289063-.425781-5.972656-2.835937-6.753906-6.058594zm-346.710938 51.792969h-16v-16h16zm292.457031-143.769531 11.3125 11.3125-11.3125 11.320312-11.3125-11.3125zm-132.457031-48.230469h16v16h-16zm-116.457031 48.230469 11.3125 11.320312-11.3125 11.3125-11.3125-11.320312zm0 271.539062-11.3125-11.3125 11.3125-11.320312 11.3125 11.3125zm132.457031 48.230469h-16v-16h16zm116.457031-48.230469-11.3125-11.320312 11.3125-11.3125 11.3125 11.320312zm-124.457031 16.230469c-83.949219 0-152-68.050781-152-152s68.050781-152 152-152 152 68.050781 152 152c-.09375 83.910156-68.089844 151.90625-152 152zm184-144h-16v-16h16zm0 0"/></svg>