<svg height="512" viewBox="0 0 64 64" width="512" xmlns="http://www.w3.org/2000/svg"><g id="hosting"><path d="m48 50h2v2h-2z"/><path d="m32.63 44.78a1.012 1.012 0 0 1 -1.26 0 18.636 18.636 0 0 1 -2.64-2.78h-6.73v10h20v-10h-6.73a18.636 18.636 0 0 1 -2.64 2.78z"/><path d="m32 27c-1.89 0-4 3.29-4 8 0 3.42 2.73 6.44 4 7.65 1.27-1.21 4-4.23 4-7.65 0-4.71-2.11-8-4-8zm1 13h-2v-7h2zm0-9h-2v-2h2z"/><path d="m16.14 37h2.2l2.74-6.39a1 1 0 0 1 .92-.61h1.67a28.815 28.815 0 0 1 -1.62-8.41l-4.13 2.07z"/><path d="m42.92 30.61 2.74 6.39h2.2l-1.78-13.34-4.13-2.07a28.815 28.815 0 0 1 -1.62 8.41h1.67a1 1 0 0 1 .92.61z"/><circle cx="32" cy="15" r="2"/><path d="m32 25c2.58 0 4.72 2.58 5.59 6.31a25.428 25.428 0 0 0 2.41-11.31c0-7.38-5.99-13.73-8-15.64-2.01 1.92-8 8.27-8 15.64a25.428 25.428 0 0 0 2.41 11.31c.87-3.73 3.01-6.31 5.59-6.31zm0-14a4 4 0 1 1 -4 4 4 4 0 0 1 4-4z"/><path d="m10 30v26h19a1 1 0 0 1 1 1h4a1 1 0 0 1 1-1h19v-26h-5.06l1.05 7.87a1 1 0 0 1 -.24.79.981.981 0 0 1 -.75.34h-4a1 1 0 0 1 -.92-.61l-2.74-6.39h-1.85a15.5 15.5 0 0 1 -1.51 2.46c.01.18.02.36.02.54a10.431 10.431 0 0 1 -1.41 5h6.41a1 1 0 0 1 1 1v12a1 1 0 0 1 -1 1h-22a1 1 0 0 1 -1-1v-12a1 1 0 0 1 1-1h6.41a10.431 10.431 0 0 1 -1.41-5c0-.18.01-.36.02-.54a15.5 15.5 0 0 1 -1.51-2.46h-1.85l-2.74 6.39a1 1 0 0 1 -.92.61h-4a.981.981 0 0 1 -.75-.34 1 1 0 0 1 -.24-.79l1.05-7.87zm36 14h6v2h-6zm0 5a1 1 0 0 1 1-1h4a1 1 0 0 1 1 1v4a1 1 0 0 1 -1 1h-4a1 1 0 0 1 -1-1zm-28 4a1 1 0 0 1 -1 1h-4a1 1 0 0 1 -1-1v-4a1 1 0 0 1 1-1h4a1 1 0 0 1 1 1zm0-9v2h-6v-2z"/><path d="m14 50h2v2h-2z"/><path d="m35 59h-6a1 1 0 0 1 -1-1h-19.63l.43 3h46.4l.43-3h-19.63a1 1 0 0 1 -1 1z"/><path d="m44 8h2v-2h2v-2h-2v-2h-2v2h-2v2h2z"/><path d="m54 10v-2h-2v2h-2v2h2v2h2v-2h2v-2z"/><path d="m18 8h2v-2h2v-2h-2v-2h-2v2h-2v2h2z"/><path d="m10 14h2v-2h2v-2h-2v-2h-2v2h-2v2h2z"/></g></svg>