<svg id="Layer_3" enable-background="new 0 0 64 64" height="512" viewBox="0 0 64 64" width="512" xmlns="http://www.w3.org/2000/svg"><path d="m33 42c0-.551-.449-1-1-1h-24c-.551 0-1 .449-1 1s.449 1 1 1h24c.551 0 1-.449 1-1z"/><path d="m28.92 45h-17.84c.488 3.387 3.401 6 6.92 6h4c3.519 0 6.432-2.613 6.92-6z"/><path d="m7 38c0 .551.449 1 1 1h24c.551 0 1-.449 1-1s-.449-1-1-1h-24c-.551 0-1 .449-1 1z"/><path d="m11.949 24.049-1.296 2.16 3.138 3.138 2.158-1.296 1.222.502.61 2.447h4.438l.611-2.446 1.222-.502 2.158 1.296 3.138-3.138-1.296-2.16.466-1.138.534-.206 1.948-.487v-4.438l-2.446-.611-.502-1.222 1.296-2.158-3.138-3.138-2.158 1.296-1.222-.502-.611-2.446h-4.438l-.611 2.446-1.222.502-2.158-1.296-3.138 3.138 1.296 2.158-.502 1.222-2.446.611v4.438l2.449.612zm8.051-11.049c3.86 0 7 3.14 7 7s-3.14 7-7 7-7-3.14-7-7 3.14-7 7-7z"/><path d="m29.414 61h9.172l-4.586-4.586z"/><path d="m9.966 35h20.053c.526-1.151 1.224-2.191 2.102-3.083 3.146-3.199 4.879-7.431 4.879-11.917 0-4.827-2.064-9.444-5.663-12.667-3.648-3.268-8.365-4.768-13.277-4.225-7.904.872-14.353 7.519-15.001 15.461-.402 4.924 1.333 9.767 4.763 13.287.896.921 1.608 1.981 2.144 3.144zm-2.966-18.781 2.416-.603-1.281-2.134 5.347-5.347 2.134 1.281.603-2.416h7.562l.603 2.416 2.134-1.281 5.347 5.347-1.281 2.134 2.416.603v7.562l-2.416.603 1.281 2.134-5.347 5.347-2.134-1.281-.603 2.416h-7.562l-.603-2.416-2.134 1.281-5.347-5.347 1.281-2.134-2.416-.603z"/><circle cx="20" cy="20" r="5"/><path d="m40.017 19.432-1.042 1.094c-.131 4.817-2.036 9.344-5.429 12.793-.503.511-.929 1.087-1.292 1.707 1.534.131 2.746 1.406 2.746 2.974 0 .771-.301 1.468-.78 2 .48.532.78 1.229.78 2 0 1.654-1.346 3-3 3h-1.059c-.5 4.493-4.317 8-8.941 8h-2.586l7.586 7.586 7-7 6.983 6.983 19.619-20.553zm1.276 37.275-8-8 1.414-1.414 8 8zm2.82-2.957-7.83-8.052 1.434-1.395 7.83 8.052zm3.18-3.043-8-8 1.414-1.414 8 8zm-11.707-16.707 8.414-8.414 14.414 14.414-8.414 8.414z"/><path d="m44 28.414-5.586 5.586 11.586 11.586 5.586-5.586zm2.707 7.707-1.414-1.414 1.414-1.414 1.414 1.414zm2.829 2.829-1.414-1.414 1.414-1.414 1.414 1.414zm1.414 1.414 1.414-1.414 1.343 1.343-1.414 1.414z"/></svg>