<svg id="Layer_1" height="512" viewBox="0 0 512 512" width="512" xmlns="http://www.w3.org/2000/svg" data-name="Layer 1"><path d="m262 78.833v-34.98a6 6 0 0 0 -12 0v34.98a6 6 0 0 0 12 0z"/><path d="m155.542 78.058a6 6 0 0 0 .218 8.483l25.919 24.625a6 6 0 0 0 8.266-8.7l-25.92-24.625a6 6 0 0 0 -8.483.217z"/><path d="m347.975 77.841-25.92 24.625a6 6 0 0 0 8.266 8.7l25.919-24.625a6 6 0 1 0 -8.265-8.7z"/><path d="m291 244.186v51.339a5.224 5.224 0 0 1 -5.578 5.475h-58.845a5.223 5.223 0 0 1 -5.577-5.475v-51.551a74.184 74.184 0 0 1 -39.758-84.974h-91.242v194h332v-194h-91.159a74.744 74.744 0 0 1 2.167 18.75c0 27.74-16.008 53.583-42.008 66.436zm-134.6-64.186h-36.4a6 6 0 0 1 0-12h36.4a6 6 0 0 1 0 12zm199.2-12h36.4a6 6 0 1 1 0 12h-36.4a6 6 0 0 1 0-12z"/><path d="m301.773 133.56a67.126 67.126 0 0 0 -49.867-17.836 65.839 65.839 0 0 0 -43.263 19.676 60.753 60.753 0 0 0 -17.756 42.412c-.088 24.564 14.993 46.857 38.258 56.793a6.2 6.2 0 0 1 3.855 5.52v7.875h46v-7.612a6.2 6.2 0 0 1 3.782-5.486c23.218-10.279 38.338-32.602 38.338-56.868a60.581 60.581 0 0 0 -19.347-44.474z"/><path d="m213 424h86a13.693 13.693 0 0 0 14-13.617v-10.7a5.739 5.739 0 0 1 6-5.683h147v-256.736a24.38 24.38 0 0 0 -24.147-24.264h-147.853a71.125 71.125 0 0 1 15.992 11.414 78.816 78.816 0 0 1 16.487 22.586h101.9c3.314 0 5.62 3.253 5.62 6.567v205.286c0 3.314-2.306 6.147-5.62 6.147h-344.759c-3.314 0-5.62-2.833-5.62-6.147v-205.286c0-3.314 2.306-6.567 5.62-6.567h102.024a82.422 82.422 0 0 1 14.376-20.413c5.388-5.5 11.507-9.587 18.13-13.587h-148a24.38 24.38 0 0 0 -24.15 24.264v256.736h147a5.739 5.739 0 0 1 6 5.685v10.7a13.693 13.693 0 0 0 14 13.615z"/><path d="m233 260h46v29h-46z"/><path d="m325 410.383a25.7 25.7 0 0 1 -26 25.617h-86a25.7 25.7 0 0 1 -26-25.617v-4.383h-158v44.441a23.667 23.667 0 0 0 24.014 23.559h405.972a23.667 23.667 0 0 0 24.014-23.559v-44.441h-158z"/></svg>