<svg id="Layer_5" enable-background="new 0 0 64 64" height="512" viewBox="0 0 64 64" width="512" xmlns="http://www.w3.org/2000/svg"><g><path d="m32 34.414 5 5 10.707-10.707-1.414-1.414-9.293 9.293-5-5-13 13v-5.852c0-1.324.689-2.517 1.753-3.304 1.969-1.456 3.247-3.793 3.247-6.43 0-2.959-1.611-5.616-4-7h-1v5.272c0 .954-.774 1.728-1.728 1.728h-2.543c-.955 0-1.729-.774-1.729-1.728v-5.272h-1c-2.389 1.384-4 4.041-4 7 0 2.637 1.278 4.974 3.247 6.43 1.064.787 1.753 1.98 1.753 3.304v20.266c0 1.657 1.343 3 3 3s3-1.343 3-3v-11.586z"/><path d="m9.825 21.074c-1.136-1.382-1.825-3.146-1.825-5.074 0-4.418 3.582-8 8-8s8 3.582 8 8c0 1.929-.689 3.692-1.825 5.074 1.358 1.075 2.411 2.482 3.064 4.073l1.525-1.526-1.246-2.096.256-.493c.288-.558.525-1.124.704-1.683l.168-.528 2.354-.598v-4.445l-2.354-.599-.168-.528c-.179-.558-.416-1.125-.705-1.683l-.255-.493 1.246-2.095-3.143-3.143-2.095 1.246-.492-.254c-.56-.289-1.126-.525-1.686-.704l-.528-.171-.597-2.354h-4.445l-.598 2.354-.528.169c-.56.179-1.126.415-1.686.704l-.492.254-2.095-1.245-3.143 3.143 1.246 2.095-.255.493c-.289.559-.526 1.125-.705 1.683l-.168.528-2.354.599v4.445l2.354.599.168.528c.179.559.416 1.125.704 1.683l.256.493-1.246 2.096 1.525 1.526c.653-1.591 1.706-2.999 3.064-4.073z"/><path d="m50.386 29.972 1.34-6.697-6.698 1.339z"/><path d="m56 15-1.435.056.252-1.244c.121-.596.183-1.206.183-1.812 0-4.962-4.037-9-9-9-3.354 0-6.409 1.851-7.972 4.831l-.541 1.032-.937-.691c-1.041-.767-2.268-1.172-3.55-1.172-1.502 0-2.911.554-4.016 1.558l-1.186 1.995c.147.318.281.637.4.957l2.802.713v7.555l-2.802.713c-.119.319-.253.639-.4.956l1.479 2.489-1.062 1.062 14.371.002-1.614-1.614 13.303-2.661-.855 4.275h2.58c2.757 0 5-2.243 5-5s-2.243-5-5-5zm-5-3c0-2.757-2.243-5-5-5v-2c3.859 0 7 3.14 7 7z"/><circle cx="16" cy="16" r="4"/><path d="m42 63h8v-30.414l-8 8z"/><path d="m32 63h8v-18.468l-8-6.667z"/><path d="m22 63h8v-23.414l-8 8z"/></g></svg>