<svg height="462pt" viewBox="-6 0 462 462" width="462pt" xmlns="http://www.w3.org/2000/svg"><path d="m189.375 367h-1.375v23h20v-4.324219c.015625-4.949219-1.941406-9.699219-5.4375-13.203125-3.492188-3.503906-8.238281-5.472656-13.1875-5.472656zm0 0"/><path d="m281.445312 298.882812c-9.136718 9.75-21.933593 15.234376-35.296874 15.117188h-42.296876c-5.492187-.019531-10.9375-.976562-16.101562-2.839844l-.09375 35.839844h230.328125c8.453125.0625 16.582031-3.246094 22.589844-9.191406 6.007812-5.949219 9.402343-14.042969 9.425781-22.496094v-22.3125h-162.8125zm0 0"/><path d="m151 443.144531c0 10.359375 8.355469 18.777344 18.714844 18.855469h19.660156c10.339844-.082031 18.667969-8.511719 18.625-18.855469v-37.144531h-57zm0 0"/><path d="m151 385.675781v4.324219h21v-23h-2.285156c-10.324219-.007812-18.699219 8.351562-18.714844 18.675781zm0 0"/><path d="m171.769531 301.898438c-1.117187-1-2.191406-1.777344-3.214843-2.886719l-5.742188-6.011719h-162.8125v22.3125c.0234375 8.453125 3.417969 16.546875 9.425781 22.496094 6.007813 5.945312 14.136719 9.253906 22.589844 9.191406h139.640625zm0 0"/><path d="m429 277v-244.863281c-.078125-17.71875-14.425781-32.0625002-32.148438-32.136719h-343.703124c-17.722657.0742188-32.070313 14.417969-32.148438 32.136719v244.863281h24v-242.5625c0-4.417969 3.199219-8.4375 7.621094-8.4375h344.757812c4.421875 0 7.621094 4.019531 7.621094 8.4375v242.5625zm0 0"/><path d="m259.484375 114.46875c3.570313 4.796875 6.648437 9.9375 9.1875 15.351562 1.929687-1.46875 3.78125-3.035156 5.550781-4.691406-4.449218-4.15625-9.398437-7.738281-14.738281-10.660156zm0 0"/><path d="m217 245.285156v-33.441406c-7.539062.832031-14.898438 2.84375-21.808594 5.96875 4.734375 10.914062 12.253906 20.386719 21.808594 27.472656zm0 0"/><path d="m274.222656 230.691406c-1.769531-1.65625-3.621094-3.222656-5.546875-4.6875-2.539062 5.410156-5.617187 10.550782-9.1875 15.34375 5.335938-2.917968 10.289063-6.5 14.734375-10.65625zm0 0"/><path d="m190.511719 241.347656c-3.554688-4.773437-6.625-9.894531-9.15625-15.285156-1.925781 1.457031-3.777344 3.011719-5.550781 4.65625 4.441406 4.144531 9.378906 7.714844 14.707031 10.628906zm0 0"/><path d="m217 186h-29.5c.367188 5.609375 1.214844 11.175781 2.535156 16.640625 8.570313-3.707031 17.667969-6.027344 26.964844-6.878906zm0 0"/><path d="m233 170h29.492188c-.363282-5.609375-1.203126-11.175781-2.511719-16.640625-8.574219 3.675781-17.683594 5.945313-26.980469 6.730469zm0 0"/><path d="m233 245.285156c9.578125-7.101562 17.109375-16.609375 21.84375-27.554687-6.917969-3.128907-14.292969-5.132813-21.84375-5.929688zm0 0"/><path d="m284.664062 218.59375c6.652344-9.707031 10.808594-20.902344 12.101563-32.59375h-18.230469c-.449218 8.296875-1.816406 16.515625-4.078125 24.511719 3.601563 2.433593 7.011719 5.136719 10.207031 8.082031zm0 0"/><path d="m284.664062 137.339844c-3.195312 2.945312-6.609374 5.648437-10.210937 8.082031 2.261719 8.015625 3.632813 16.261719 4.082031 24.578125h18.230469c-1.292969-11.714844-5.449219-22.929688-12.101563-32.660156zm0 0"/><path d="m190.515625 114.46875c-5.328125 2.917969-10.269531 6.488281-14.710937 10.632812 1.773437 1.644532 3.625 3.199219 5.550781 4.660157 2.535156-5.390625 5.601562-10.515625 9.160156-15.292969zm0 0"/><path d="m233 290.261719c.050781 2.710937-.625 5.382812-1.960938 7.738281h15.109376c8.910156.078125 17.441406-3.574219 23.53125-10.074219l8.117187-8.570312c1.539063-1.582031 3.679687-2.4375 5.882813-2.355469h105.320312v-235h-328v235h105.320312c2.210938-.070312 4.347657.800781 5.882813 2.394531l2.027344 2.015625c3.160156-5.246094 8.851562-8.441406 14.976562-8.410156h3.699219c9.628906.054688 17.40625 7.871094 17.410156 17.5-.015625.800781.613282 1.464844 1.410156 1.5h3.867188c.789062 0 1.410156-.945312 1.410156-1.738281v-24.5c-46.972656-4.277344-82.273437-44.742188-80.132812-91.859375 2.140625-47.117188 40.964844-84.21875 88.132812-84.21875 47.164063 0 85.988282 37.101562 88.128906 84.21875 2.140626 47.117187-33.15625 87.582031-80.128906 91.859375zm0 0"/><path d="m192.898438 289h-3.699219c-.679688 0-1.410157.316406-1.410157 1.167969l-.007812 3.75c2.5 1.449219 5.1875 2.558593 7.984375 3.292969-.960937-2.164063-1.457031-4.507813-1.457031-6.875 0-.367188-.152344-.71875-.417969-.972657-.265625-.25-.625-.382812-.992187-.363281zm0 0"/><path d="m233 110.535156v33.480469c7.550781-.800781 14.921875-2.800781 21.839844-5.929687-4.730469-10.941407-12.265625-20.445313-21.839844-27.550782zm0 0"/><path d="m165.355469 137.285156c-6.660157 9.746094-10.824219 20.980469-12.121094 32.714844h18.230469c.453125-8.335938 1.828125-16.597656 4.101562-24.632812-3.597656-2.4375-7.011718-5.136719-10.210937-8.082032zm0 0"/><path d="m217 110.535156c-9.554688 7.085938-17.074219 16.5625-21.808594 27.476563 6.910156 3.125 14.269532 5.140625 21.808594 5.96875zm0 0"/><path d="m217 160.0625c-9.289062-.820312-18.390625-3.109375-26.957031-6.789062-1.320313 5.492187-2.167969 11.089843-2.535157 16.726562h29.492188zm0 0"/><path d="m153.234375 186c1.296875 11.710938 5.460937 22.925781 12.121094 32.644531 3.199219-2.941406 6.613281-5.640625 10.210937-8.078125-2.273437-8.011718-3.648437-16.25-4.101562-24.566406zm0 0"/><path d="m233 195.726562c9.300781.8125 18.410156 3.113282 26.980469 6.820313 1.3125-5.433594 2.15625-10.96875 2.519531-16.546875h-29.5zm0 0"/></svg>