<svg viewBox="0 0 512 512" xmlns="http://www.w3.org/2000/svg"><path d="m181.796875 241h28.203125v-44.605469c-14.519531 10.902344-24.476562 26.8125-28.203125 44.605469zm0 0"/><path d="m300 196.394531v44.605469h28.203125c-3.726563-17.792969-13.683594-33.703125-28.203125-44.605469zm0 0"/><path d="m328.292969 271h-146.585938c5.21875 25.398438 23.21875 46.867188 48.289063 55.722656 5.992187 2.125 10.003906 7.792969 10.003906 14.148438v48.613281c4.992188.5625 9.863281 1.515625 15 1.515625s10.011719-.953125 15-1.515625v-48.613281c0-6.355469 4.015625-12.023438 10.007812-14.148438 25.066407-8.855468 43.066407-30.324218 48.285157-55.722656zm0 0"/><path d="m500.648438 211.453125-26.539063-6.136719c-5.59375-24.40625-15.085937-47.359375-28.300781-68.46875l12.964844-21.621094c3.546874-5.902343 2.609374-13.460937-2.253907-18.324218l-42.421875-42.421875c-4.863281-4.878907-12.421875-5.800781-18.328125-2.253907l-21.621093 12.960938c-21.105469-13.210938-44.0625-22.703125-68.464844-28.300781l-6.136719-25.535157c-1.671875-6.664062-7.660156-11.351562-14.546875-11.351562h-60c-6.886719 0-12.875 4.6875-14.546875 11.351562l-6.136719 25.539063c-24.40625 5.59375-47.359375 15.085937-68.46875 28.300781l-21.621094-12.964844c-5.917968-3.515624-13.476562-2.621093-18.324218 2.253907l-42.421875 42.421875c-4.863281 4.863281-5.800781 12.421875-2.253907 18.324218l12.960938 21.621094c-13.210938 21.109375-22.703125 44.0625-28.300781 68.46875l-24.535157 6.136719c-6.664062 1.671875-11.351562 7.660156-11.351562 14.546875v60c0 6.886719 4.6875 12.875 11.351562 14.546875l24.539063 6.136719c5.59375 24.40625 15.085937 47.359375 28.300781 68.46875l-12.964844 21.621094c-3.546874 5.902343-2.609374 13.460937 2.253907 18.324218l42.421875 42.421875c4.851562 4.878907 12.394531 5.769531 18.328125 2.253907l21.621093-12.960938c21.105469 13.210938 44.0625 22.703125 68.464844 28.300781l6.136719 25.535157c1.671875 6.664062 7.660156 11.351562 14.546875 11.351562h60c6.886719 0 12.875-4.6875 14.546875-11.351562l6.136719-25.539063c24.40625-5.59375 47.359375-15.085937 68.46875-28.300781l21.621094 12.964844c5.902343 3.53125 13.460937 2.621093 18.324218-2.253907l42.421875-42.421875c4.863281-4.863281 5.800781-12.421875 2.253907-18.328125l-12.960938-21.621093c13.210938-21.105469 22.703125-44.0625 28.300781-68.464844l26.535157-6.136719c6.664062-1.671875 11.351562-7.660156 11.351562-14.546875v-60c0-6.886719-4.6875-12.875-11.351562-14.546875zm-245.648438 209.546875c-90.980469 0-165-74.019531-165-165s74.019531-165 165-165 165 74.019531 165 165-74.019531 165-165 165zm0 0"/><path d="m255 121c-74.441406 0-135 60.558594-135 135 0 58.589844 37.734375 108.070312 90 126.707031v-31.816406c-36.285156-17.210937-60-54.09375-60-94.890625 0-44.105469 28.125-83.730469 69.976562-98.628906 9.722657-3.429688 20.023438 3.738281 20.023438 14.136718v69.492188h30v-69.492188c0-10.398437 10.285156-17.527343 20.023438-14.136718 41.851562 14.898437 69.976562 54.523437 69.976562 98.628906 0 40.796875-23.714844 77.679688-60 94.894531v31.8125c52.265625-18.636719 90-68.117187 90-126.707031 0-74.441406-60.558594-135-135-135zm0 0"/></svg>