<svg id="Layer_1" enable-background="new 0 0 511.941 511.941" height="512" viewBox="0 0 511.941 511.941" width="512" xmlns="http://www.w3.org/2000/svg"><g><path d="m511.941 387.303v-349.851h-511.941v349.851h192.291v57.187h-56.748v30h240.855v-30h-56.748v-57.187zm-481.941-319.851h451.941v289.851h-451.941zm259.65 377.037h-67.359v-57.187h67.359z"/><path d="m323.286 166.276 21.429-21.429-21.213-21.213-21.429 21.429c-9.192-6.315-19.737-10.786-31.102-12.907v-30.281h-30v30.281c-11.365 2.121-21.91 6.591-31.102 12.907l-21.429-21.429-21.213 21.213 21.429 21.429c-6.315 9.192-10.786 19.737-12.907 31.102h-30.281v30h30.281c2.121 11.365 6.592 21.91 12.907 31.102l-21.429 21.429 21.213 21.213 21.429-21.429c9.192 6.315 19.737 10.786 31.102 12.907v30.281h30v-30.281c11.365-2.121 21.91-6.591 31.102-12.907l21.429 21.429 21.213-21.213-21.429-21.429c6.315-9.192 10.786-19.737 12.907-31.102h30.281v-30h-30.281c-2.121-11.366-6.592-21.91-12.907-31.102zm-67.315 97.728c-28.467 0-51.627-23.16-51.627-51.627s23.16-51.627 51.627-51.627 51.627 23.16 51.627 51.627-23.16 51.627-51.627 51.627z"/></g></svg>