<?xml version="1.0" encoding="iso-8859-1"?>
<!-- Generator: Adobe Illustrator 19.0.0, SVG Export Plug-In . SVG Version: 6.00 Build 0)  -->
<svg version="1.1" id="Capa_1" xmlns="http://www.w3.org/2000/svg" xmlns:xlink="http://www.w3.org/1999/xlink" x="0px" y="0px"
	 viewBox="0 0 512 512" style="enable-background:new 0 0 512 512;" xml:space="preserve">
<g>
	<g>
		<polygon points="331,466 331,436 181,436 181,466 91,466 91,496 421,496 421,466 		"/>
	</g>
</g>
<g>
	<g>
		<path d="M327.675,235.053C329.2,226.167,331,219.395,331,211c0-8.377-1.787-15.09-3.325-24.053l26.748-15.454l-15-25.986
			l-27.012,15.601C274.109,132.027,284.12,144.35,271,137.099V106h-30v31.099c-44.225,18.743-28.275,16.053-41.411,24.009
			l-27.012-15.601l-15,25.986l26.748,15.454C182.8,195.832,181,202.605,181,211c0,8.377,1.787,15.09,3.325,24.053l-26.748,15.454
			l15,25.986l27.012-15.601c38.289,29.072,28.292,16.736,41.411,23.979V316h30v-31.099c44.225-18.743,28.275-16.055,41.411-24.009
			l27.012,15.601l15-25.986L327.675,235.053z M256,256c-24.814,0-45-20.186-45-45c0-24.814,20.186-45,45-45
			c24.814,0,45,20.186,45,45C301,235.814,280.814,256,256,256z"/>
	</g>
</g>
<g>
	<g>
		<path d="M0,16v390h512V16H0z M361,211c0,2.842-0.146,5.654-0.396,8.423l34.805,20.098l-45,77.959l-35.156-20.303
			c-4.541,3.135-9.302,5.903-14.253,8.276V346h-90v-40.547c-4.951-2.373-9.712-5.142-14.253-8.276l-35.156,20.303l-45-77.959
			l34.805-20.098c-0.25-2.769-0.396-5.581-0.396-8.423s0.146-5.654,0.396-8.423l-34.805-20.098l45-77.959l35.156,20.303
			c4.541-3.135,9.302-5.903,14.253-8.276V76h90v40.547c4.951,2.373,9.712,5.142,14.253,8.276l35.156-20.303l45,77.959
			l-34.805,20.098C360.853,205.346,361,208.158,361,211z"/>
	</g>
</g>
<g>
	<g>
		<path d="M256,196c-8.276,0-15,6.724-15,15s6.724,15,15,15s15-6.724,15-15S264.276,196,256,196z"/>
	</g>
</g>
<g>
</g>
<g>
</g>
<g>
</g>
<g>
</g>
<g>
</g>
<g>
</g>
<g>
</g>
<g>
</g>
<g>
</g>
<g>
</g>
<g>
</g>
<g>
</g>
<g>
</g>
<g>
</g>
<g>
</g>
</svg>
