<svg height="682.66669pt" viewBox="-21 -21 682.66669 682.66669" width="682.66669pt" xmlns="http://www.w3.org/2000/svg"><path d="m0 354.289062h206.9375c4.464844-.039062 8.488281-2.695312 10.285156-6.78125 16.542969-36.109374 49.199219-62.269531 88.050782-70.519531 38.859374-8.253906 79.328124 2.371094 109.117187 28.644531 10.6875 9.445313 14.429687 24.519532 9.390625 37.863282-5.035156 13.347656-17.800781 22.191406-32.066406 22.214844h-71.714844v68.644531l71.898438-.066407c14.335937-.039062 27.183593 8.851563 32.203124 22.28125 5.09375 12.941407 1.609376 27.679688-8.730468 36.976563-29.691406 26.679687-70.300782 37.65625-109.394532 29.570313-39.09375-8.085938-72.011718-34.273438-88.6875-70.542969-1.8125-4.15625-5.902343-6.839844-10.433593-6.863281h-206.855469v102.859374h640v-285.714843h-160c-14.476562-.058594-27.359375-9.207031-32.183594-22.855469h-27.066406c-5.535156 15.734375-21.617188 25.175781-38.054688 22.347656-16.441406-2.824218-28.441406-17.097656-28.40625-33.777344h-22.859374c-12.625 0-22.859376-10.230468-22.859376-22.859374h-156.570312l-31.40625 20.9375c-1.867188 1.246093-4.0625 1.910156-6.304688 1.921874h-45.71875c-18.9375 0-34.28125-15.347656-34.28125-34.28125 0-18.9375 15.34375-34.289062 34.28125-34.289062h45.71875c2.253907.003906 4.460938.667969 6.339844 1.917969l31.371094 20.9375h156.570312c0-12.621094 10.234376-22.855469 22.859376-22.855469h22.859374c-.035156-16.679688 11.964844-30.945312 28.40625-33.773438 16.4375-2.828124 32.519532 6.617188 38.054688 22.34375h27.066406c4.824219-13.648437 17.707032-22.792968 32.183594-22.859374h160v-34.28125h-640zm548.570312 34.28125c0-12.625 10.234376-22.859374 22.859376-22.859374h22.859374c12.621094 0 22.855469 10.234374 22.855469 22.859374v22.859376c0 12.625-10.234375 22.859374-22.855469 22.859374h-22.859374c-12.625 0-22.859376-10.234374-22.859376-22.859374zm-91.425781 0c0-12.625 10.234375-22.859374 22.855469-22.859374h22.855469c12.621093 0 22.855469 10.234374 22.855469 22.859374v22.859376c0 12.625-10.234376 22.859374-22.855469 22.859374h-22.855469c-12.621094 0-22.855469-10.234374-22.855469-22.859374zm0 0"/><path d="m571.429688 388.570312h22.867187v22.859376h-22.867187zm0 0"/><path d="m480 388.570312h22.867188v22.859376h-22.867188zm0 0"/><path d="m422.855469 171.429688h22.855469v45.714843h-22.855469zm0 0"/><path d="m468.570312 160v68.570312c0 6.3125 5.117188 11.429688 11.429688 11.429688h160v-34.289062h-137.144531c-6.3125 0-11.425781-5.117188-11.425781-11.421876 0-6.316406 5.113281-11.433593 11.425781-11.433593h137.144531v-34.285157h-160c-6.3125 0-11.429688 5.117188-11.429688 11.429688zm0 0"/><path d="m0 377.144531h22.855469v45.710938h-22.855469zm0 0"/><path d="m628.570312 0h-617.140624c-6.3125 0-11.429688 5.117188-11.429688 11.429688v57.140624h640v-57.140624c0-6.3125-5.117188-11.429688-11.429688-11.429688zm-594.28125 45.710938c-6.316406 0-11.433593-5.117188-11.433593-11.421876 0-6.316406 5.117187-11.433593 11.433593-11.433593 6.304688 0 11.421876 5.117187 11.421876 11.433593 0 6.304688-5.117188 11.421876-11.421876 11.421876zm45.710938 0c-6.3125 0-11.429688-5.117188-11.429688-11.421876 0-6.316406 5.117188-11.433593 11.429688-11.433593s11.429688 5.117187 11.429688 11.433593c0 6.304688-5.117188 11.421876-11.429688 11.421876zm45.710938 0c-6.304688 0-11.421876-5.117188-11.421876-11.421876 0-6.316406 5.117188-11.433593 11.421876-11.433593 6.316406 0 11.433593 5.117187 11.433593 11.433593 0 6.304688-5.117187 11.421876-11.433593 11.421876zm0 0"/><path d="m377.144531 160v68.570312c0 6.3125 5.117188 11.429688 11.425781 11.429688 6.3125 0 11.429688-5.117188 11.429688-11.429688v-68.570312c0-6.3125-5.117188-11.429688-11.429688-11.429688-6.308593 0-11.425781 5.117188-11.425781 11.429688zm0 0"/><path d="m0 628.570312c0 6.3125 5.117188 11.429688 11.429688 11.429688h617.140624c6.3125 0 11.429688-5.117188 11.429688-11.429688v-57.140624h-640zm0 0"/><path d="m331.429688 182.855469h22.859374v22.855469h-22.859374zm0 0"/><path d="m45.710938 377.144531h22.859374v45.710938h-22.859374zm0 0"/><path d="m320 342.855469h71.714844c4.765625-.011719 9.023437-2.96875 10.710937-7.421875 1.691407-4.453125.457031-9.488282-3.097656-12.65625-22.535156-19.996094-52.757813-29.007813-82.5625-24.628906-34.507813 5.128906-64.113281 27.289062-78.753906 58.960937-5.585938 12.148437-17.703125 19.960937-31.074219 20.035156h-115.507812v45.710938h115.425781c13.414062.089843 25.5625 7.941406 31.144531 20.136719 13.621094 29.703124 40.554688 51.152343 72.546875 57.78125 31.996094 6.628906 65.234375-2.355469 89.53125-24.203126 3.355469-2.933593 4.4375-7.6875 2.6875-11.78125-1.640625-4.589843-5.992187-7.648437-10.867187-7.644531h-72c-12.574219-.019531-22.753907-10.214843-22.753907-22.789062v-68.644531c0-12.621094 10.234375-22.855469 22.855469-22.855469zm0 0"/><path d="m68.570312 182.855469c-6.308593 0-11.425781 5.117187-11.425781 11.433593 0 6.304688 5.117188 11.421876 11.425781 11.421876h42.289063l17.140625-11.421876-17.140625-11.433593zm0 0"/></svg>