<svg height="464pt" viewBox="0 0 464 464" width="464pt" xmlns="http://www.w3.org/2000/svg"><path d="m448 133.664062c0 8.257813-4.59375 15.6875-11.976562 19.382813l-31.207032 15.59375c-12.839844 6.429687-20.816406 19.34375-20.816406 33.695313v21.664062h16v-21.664062c0-8.257813 4.59375-15.6875 11.976562-19.382813l31.207032-15.59375c12.839844-6.429687 20.816406-19.34375 20.816406-33.695313 0-20.769531-16.894531-37.664062-37.664062-37.664062h-154.335938v16h154.335938c11.945312 0 21.664062 9.71875 21.664062 21.664062zm0 0"/><path d="m384 272h-8c-30.871094 0-56 25.128906-56 56v8h48v-8c0-10.414062 6.710938-19.214844 16-22.527344zm0 0"/><path d="m232 87.632812c0 7.917969-3.9375 15.269532-10.519531 19.664063l-4.105469 2.734375c-5.871094 3.914062-9.375 10.464844-9.375 17.511719 0 7.351562 3.910156 14.273437 10.214844 18.058593l22 13.199219c9.945312-15.9375 15.785156-34.679687 15.785156-54.800781 0-8.273438-1.070312-16.28125-2.902344-24h-13.457031c-4.214844 0-7.640625 3.425781-7.640625 7.632812zm0 0"/><path d="m88.839844 84.425781c6.3125-12.59375 18.976562-20.425781 33.046875-20.425781h7.417969c3.695312 0 6.695312-3 6.695312-6.6875 0-18.59375 14.679688-33.3125 32.71875-33.3125 4.015625 0 7.28125-3.265625 7.28125-7.28125v-13.816406c-7.71875-1.832032-15.726562-2.902344-24-2.902344-54.640625 0-99.480469 42.390625-103.59375 96h21.707031c7.984375 0 15.160157-4.441406 18.726563-11.574219zm0 0"/><path d="m80.992188 128c3.632812 0 7.167968-.679688 10.527343-2.03125l7.625-3.046875c18.558594-7.425781 39.960938-1.457031 51.976563 14.574219 5.726562 7.640625 8.878906 17.089844 8.878906 26.632812v7.222656c0 4.121094 2.625 7.761719 6.527344 9.0625 9.90625 3.304688 16.648437 12.25 17.335937 22.546876 18.394531-5.9375 34.519531-16.882813 46.855469-31.199219l-20.726562-12.441407c-11.097657-6.648437-17.992188-18.824218-17.992188-31.777343 0-12.414063 6.167969-23.933594 16.496094-30.832031l4.105468-2.734376c2.132813-1.417968 3.398438-3.785156 3.398438-6.34375 0-13.03125 10.601562-23.632812 23.632812-23.632812h8.34375c-10.550781-25.222656-30.753906-45.425781-55.976562-55.976562v8.695312c0 12.832031-10.449219 23.28125-23.28125 23.28125-9.214844 0-16.71875 7.535156-16.71875 16.816406 0 13.007813-10.175781 23.183594-22.695312 23.183594h-7.417969c-7.984375 0-15.167969 4.441406-18.734375 11.574219-6.304688 12.59375-18.96875 20.425781-33.039063 20.425781h-21.707031c.417969 5.464844 1.265625 10.800781 2.503906 16zm0 0"/><path d="m138.328125 147.097656c-7.6875-10.242187-21.335937-14.074218-33.238281-9.3125l-7.617188 3.046875c-5.257812 2.097657-10.800781 3.167969-16.480468 3.167969h-24.96875c15.703124 37.542969 52.800781 64 95.976562 64 5.457031 0 10.769531-.550781 16-1.359375v-1.992187c0-4.121094-2.625-7.761719-6.527344-9.0625-10.449218-3.480469-17.472656-13.226563-17.472656-24.234376v-7.222656c0-6.105468-2.015625-12.152344-5.671875-17.03125zm0 0"/><path d="m408 248c0-4.414062-3.585938-8-8-8h-16c-4.414062 0-8 3.585938-8 8v8h32zm0 0"/><path d="m392 368c4.414062 0 8-3.585938 8-8v-32c0-4.414062-3.585938-8-8-8s-8 3.585938-8 8v32c0 4.414062 3.585938 8 8 8zm0 0"/><path d="m408 272h-8v33.472656c9.289062 3.3125 16 12.113282 16 22.527344v8h48v-8c0-30.871094-25.128906-56-56-56zm0 0"/><path d="m416 360c0 13.230469-10.769531 24-24 24s-24-10.769531-24-24v-8h-48v40c0 26.679688 14.625 49.96875 36.238281 62.40625 6.609375-13.375 20.304688-22.40625 35.761719-22.40625 15.449219 0 29.144531 9.039062 35.761719 22.40625 21.613281-12.4375 36.238281-35.726562 36.238281-62.40625v-40h-48zm0 0"/><path d="m296 224h-288c-4.414062 0-8 3.585938-8 8v80c0 4.414062 3.585938 8 8 8h288c4.414062 0 8-3.585938 8-8v-80c0-4.414062-3.585938-8-8-8zm-209.0625 80h-19.21875l-11.71875-17.574219-11.71875 17.574219h-19.21875l-8.984375-62.863281 15.84375-2.265625 6.445313 45.160156 17.632812-26.457031 17.632812 26.449219 6.445313-45.160157 15.84375 2.265625zm96 0h-19.21875l-11.71875-17.574219-11.71875 17.574219h-19.21875l-8.984375-62.863281 15.84375-2.265625 6.445313 45.160156 17.632812-26.457031 17.632812 26.449219 6.445313-45.160157 15.84375 2.265625zm96 0h-19.21875l-11.71875-17.574219-11.71875 17.574219h-19.21875l-8.984375-62.863281 15.84375-2.265625 6.445313 45.160156 17.632812-26.457031 17.632812 26.449219 6.445313-45.160157 15.84375 2.265625zm0 0"/><path d="m392 448c-9.039062 0-17.078125 5.144531-21.152344 12.816406 6.695313 2.0625 13.792969 3.183594 21.152344 3.183594s14.457031-1.121094 21.152344-3.183594c-4.082032-7.671875-12.121094-12.816406-21.152344-12.816406zm0 0"/></svg>