<svg height="682.66669pt" viewBox="-21 -21 682.66669 682.66669" width="682.66669pt" xmlns="http://www.w3.org/2000/svg"><path d="m628.570312 0h-617.140624c-6.3125 0-11.429688 5.117188-11.429688 11.429688v57.140624h640v-57.140624c0-6.3125-5.117188-11.429688-11.429688-11.429688zm-594.28125 45.710938c-6.316406 0-11.433593-5.117188-11.433593-11.421876 0-6.316406 5.117187-11.433593 11.433593-11.433593 6.304688 0 11.421876 5.117187 11.421876 11.433593 0 6.304688-5.117188 11.421876-11.421876 11.421876zm45.710938 0c-6.3125 0-11.429688-5.117188-11.429688-11.421876 0-6.316406 5.117188-11.433593 11.429688-11.433593s11.429688 5.117187 11.429688 11.433593c0 6.304688-5.117188 11.421876-11.429688 11.421876zm45.710938 0c-6.304688 0-11.421876-5.117188-11.421876-11.421876 0-6.316406 5.117188-11.433593 11.421876-11.433593 6.316406 0 11.433593 5.117187 11.433593 11.433593 0 6.304688-5.117187 11.421876-11.433593 11.421876zm0 0"/><path d="m0 548.570312h102.855469c6.316406 0 11.433593 5.117188 11.433593 11.429688s-5.117187 11.429688-11.433593 11.429688h-102.855469v57.140624c0 6.3125 5.117188 11.429688 11.429688 11.429688h580.089843l-169.679687-169.679688c-33.386719 14.125-71.972656 7.1875-98.347656-17.683593-26.378907-24.871094-35.566407-62.980469-23.421876-97.136719 1.3125-3.695312 4.425782-6.457031 8.25-7.320312 3.824219-.859376 7.820313.296874 10.59375 3.066406l42.984376 42.972656c4.507812 4.332031 11.636718 4.332031 16.148437 0l16.171875-16.164062c2.144531-2.140626 3.351562-5.050782 3.351562-8.085938 0-3.03125-1.207031-5.941406-3.351562-8.085938l-42.972656-42.96875c-2.769532-2.773437-3.925782-6.769531-3.066406-10.59375.863281-3.824218 3.625-6.9375 7.320312-8.25 34.375-12.234374 72.734375-2.867187 97.609375 23.828126 24.007813 26.59375 30.632813 64.613281 17.027344 97.757812l169.863281 169.863281v-500.089843h-640zm377.144531 0h68.566407c6.316406 0 11.433593 5.117188 11.433593 11.429688s-5.117187 11.429688-11.433593 11.429688h-68.566407c-6.316406 0-11.433593-5.117188-11.433593-11.429688s5.117187-11.429688 11.433593-11.429688zm-70.859375-233.140624c-1.816406 2.421874-4.527344 4.027343-7.527344 4.453124-3 .429688-6.046874-.351562-8.46875-2.167968-7.902343-5.964844-17.535156-9.179688-27.433593-9.144532-25.246094 0-45.710938 20.46875-45.710938 45.71875 0 25.242188 20.464844 45.710938 45.710938 45.710938 6.316406 0 11.433593 5.117188 11.433593 11.429688 0 6.308593-5.117187 11.425781-11.433593 11.425781-29.832031 0-56.246094-19.292969-65.320313-47.707031-9.074218-28.425782 1.269532-59.449219 25.582032-76.746094 24.308593-17.289063 57.015624-16.875 80.882812 1.027344 2.425781 1.816406 4.027344 4.523437 4.457031 7.523437.429688 3.003906-.351562 6.050781-2.171875 8.476563zm-31.996094 38.859374c0 6.304688-5.117187 11.421876-11.433593 11.421876-6.3125 0-11.425781-5.117188-11.425781-11.421876 0-6.316406 5.113281-11.433593 11.425781-11.433593 6.316406 0 11.433593 5.117187 11.433593 11.433593zm98.992188-82.140624c-2.273438 2.007812-5.253906 3.027343-8.277344 2.84375-3.027344-.191407-5.855468-1.574219-7.859375-3.851563-41.839843-47.332031-112.320312-56.238281-164.621093-20.804687-52.296876 35.441406-70.15625 104.199218-41.703126 160.605468 28.453126 56.40625 94.359376 82.917969 153.945313 61.914063 3.882813-1.492188 8.273437-.765625 11.453125 1.910156 3.191406 2.675781 4.675781 6.871094 3.875 10.953125s-3.757812 7.40625-7.714844 8.679688c-70.464844 24.894531-148.449218-6.429688-182.121094-73.144532-33.671874-66.71875-12.546874-148.058594 49.328126-189.960937 61.878906-41.902344 145.25-31.324219 194.703124 24.707031 2.007813 2.273438 3.03125 5.253906 2.84375 8.28125-.1875 3.03125-1.578124 5.859375-3.851562 7.867188zm232.429688 230.707031h-22.855469c-6.3125 0-11.425781-5.117188-11.425781-11.425781 0-6.3125 5.113281-11.429688 11.425781-11.429688h22.855469c6.316406 0 11.433593 5.117188 11.433593 11.429688 0 6.308593-5.117187 11.425781-11.433593 11.425781zm0-45.710938h-45.710938c-6.3125 0-11.429688-5.117187-11.429688-11.433593 0-6.304688 5.117188-11.421876 11.429688-11.421876h45.710938c6.316406 0 11.433593 5.117188 11.433593 11.421876 0 6.316406-5.117187 11.433593-11.433593 11.433593zm0-45.714843h-91.421876c-6.316406 0-11.433593-5.117188-11.433593-11.429688s5.117187-11.429688 11.433593-11.429688h91.421876c6.316406 0 11.433593 5.117188 11.433593 11.429688s-5.117187 11.429688-11.433593 11.429688zm0-45.71875h-91.421876c-6.316406 0-11.433593-5.117188-11.433593-11.421876 0-6.316406 5.117187-11.433593 11.433593-11.433593h91.421876c6.316406 0 11.433593 5.117187 11.433593 11.433593 0 6.304688-5.117187 11.421876-11.433593 11.421876zm0-45.710938h-114.28125c-6.3125 0-11.429688-5.117188-11.429688-11.429688 0-6.308593 5.117188-11.425781 11.429688-11.425781h114.28125c6.316406 0 11.433593 5.117188 11.433593 11.425781 0 6.3125-5.117187 11.429688-11.433593 11.429688zm0-45.710938h-125.710938c-6.3125 0-11.429688-5.117187-11.429688-11.433593 0-6.3125 5.117188-11.425781 11.429688-11.425781h125.710938c6.316406 0 11.433593 5.113281 11.433593 11.425781 0 6.316406-5.117187 11.433593-11.433593 11.433593zm0-45.71875h-125.710938c-6.3125 0-11.429688-5.113281-11.429688-11.425781 0-6.316406 5.117188-11.433593 11.429688-11.433593h125.710938c6.316406 0 11.433593 5.117187 11.433593 11.433593 0 6.3125-5.117187 11.425781-11.433593 11.425781zm0-45.714843h-148.566407c-6.316406 0-11.433593-5.117188-11.433593-11.425781 0-6.3125 5.117187-11.429688 11.433593-11.429688h148.566407c6.316406 0 11.433593 5.117188 11.433593 11.429688 0 6.308593-5.117187 11.425781-11.433593 11.425781zm-251.421876-68.566407h251.421876c6.316406 0 11.433593 5.117188 11.433593 11.421876 0 6.316406-5.117187 11.433593-11.433593 11.433593h-251.421876c-6.316406 0-11.433593-5.117187-11.433593-11.433593 0-6.304688 5.117187-11.421876 11.433593-11.421876zm-125.71875 34.28125c0-12.625 10.234376-22.859374 22.859376-22.859374h22.859374c12.621094 0 22.855469 10.234374 22.855469 22.859374v14.652344c27.441407 4.84375 53.496094 15.613282 76.351563 31.550782l10.570312-10.203126c8.941406-8.890624 23.386719-8.890624 32.320313 0l16.1875 16.179688c4.285156 4.289062 6.691406 10.105469 6.691406 16.167969 0 6.066406-2.40625 11.878906-6.691406 16.167969l-10.382813 10.367187c3.871094 5.511719 7.4375 11.234375 10.675782 17.140625 2.097656 3.582031 2.085937 8.019531-.023438 11.589844-2.117188 3.574218-6 5.714844-10.148438 5.605468-4.144531-.113281-7.910156-2.460937-9.828124-6.144531-2.828126-5.105469-5.917969-10.066406-9.253907-14.855469-6.425781-9.101562-5.40625-21.5 2.421875-29.429687l10.375-10.375-16.160156-16.171875-10.363281 10.390625c-7.929688 7.820313-20.320313 8.84375-29.425781 2.429687-20.078126-14.023437-42.964844-23.515624-67.078126-27.816406-11.003906-1.902344-19.054687-11.425781-19.09375-22.59375v-14.652344h-22.859374v14.652344c-.078126 11.128906-8.105469 20.605469-19.066407 22.515625-24.117187 4.296875-47.011719 13.789063-67.09375 27.816407-9.105469 6.402343-21.480469 5.382812-29.417969-2.421876l-10.378906-10.398437-16.15625 16.171875 10.375 10.375c7.828125 7.929688 8.847656 20.328125 2.421875 29.429688-14.011719 20.078124-23.503906 42.957031-27.816406 67.058593-1.882813 10.976563-11.367187 19.019531-22.503906 19.085938h-14.648438v22.855469h14.648438c11.132812.070312 20.613281 8.109374 22.503906 19.078124 4.3125 24.109376 13.804687 46.992188 27.816406 67.078126 6.425781 9.101562 5.40625 21.496093-2.421875 29.421874l-10.375 10.382813 16.15625 16.171875 10.367188-10.390625c7.929687-7.824219 20.324218-8.851563 29.429687-2.433594 20.078125 14.023438 42.964844 23.515625 67.074219 27.8125 10.96875 1.902344 19.003906 11.382813 19.085938 22.515625v14.652344h22.859374v-14.652344c.078126-11.125 8.097657-20.601562 19.0625-22.515625 15.433594-2.761719 30.40625-7.652343 44.5-14.519531 5.679688-2.769531 12.523438-.402344 15.292969 5.277344 2.761719 5.675781.402344 12.523437-5.285156 15.292968-15.976563 7.800782-32.953125 13.351563-50.453125 16.5l-.261719 14.617188c0 12.621094-10.234375 22.855469-22.855469 22.855469h-22.859374c-12.625 0-22.859376-10.234375-22.859376-22.855469v-14.652344c-27.441406-4.84375-53.496093-15.613281-76.351562-31.554687l-10.574219 10.207031c-8.941406 8.890625-23.378906 8.890625-32.316406 0l-16.183594-16.171875c-4.292969-4.289063-6.699219-10.101563-6.699219-16.164063s2.40625-11.878906 6.699219-16.164062l10.375-10.367188c-15.996093-22.824218-26.824219-48.863281-31.726562-76.300781l-14.648438-.261719c-12.621093 0-22.855469-10.230468-22.855469-22.859374v-22.855469c0-12.621094 10.234376-22.855469 22.855469-22.855469h14.648438c4.84375-27.441406 15.605469-53.496094 31.542969-76.351562l-10.179688-10.570313c-4.292969-4.289063-6.707031-10.109375-6.707031-16.171875 0-6.070312 2.414062-11.886719 6.707031-16.171875l16.136719-16.164063c8.941406-8.890624 23.386719-8.890624 32.328125 0l10.378906 10.398438c22.824219-15.988281 48.859375-26.820312 76.296875-31.722656zm-194.28125-34.28125h148.566407c6.316406 0 11.433593 5.117188 11.433593 11.421876 0 6.316406-5.117187 11.433593-11.433593 11.433593h-148.566407c-6.316406 0-11.433593-5.117187-11.433593-11.433593 0-6.304688 5.117187-11.421876 11.433593-11.421876zm0 45.710938h45.710938c6.3125 0 11.429688 5.117188 11.429688 11.429688 0 6.308593-5.117188 11.425781-11.429688 11.425781h-45.710938c-6.316406 0-11.433593-5.117188-11.433593-11.425781 0-6.3125 5.117187-11.429688 11.433593-11.429688zm0 0"/><path d="m448.320312 432.148438c-3.539062-3.539063-4.367187-8.976563-2.035156-13.402344 13.601563-25.898438 9.65625-57.527344-9.898437-79.285156-13.882813-14.894532-33.667969-22.851563-54-21.710938l27.988281 27.988281c6.429688 6.429688 10.046875 15.152344 10.046875 24.242188 0 9.097656-3.617187 17.816406-10.046875 24.246093l-16.171875 16.164063c-13.570313 12.949219-34.921875 12.949219-48.492187 0l-27.953126-27.953125c-1.375 24.769531 10.757813 48.347656 31.714844 61.628906 20.953125 13.28125 47.457032 14.191406 69.273438 2.371094 4.441406-2.410156 9.941406-1.609375 13.515625 1.960938l188.230469 188.25c4.484374 4.332031 11.613281 4.273437 16.023437-.132813 4.40625-4.410156 4.464844-11.539063.132813-16.023437zm0 0"/></svg>