<svg height="512pt" viewBox="-30 0 512 512" width="512pt" xmlns="http://www.w3.org/2000/svg"><path d="m121.792969 287.914062 10.183593-13.632812-12.542968-50.730469-94.128906-26.351562c-.050782 1.761719-.070313 3.53125-.070313 5.300781 0 29.945312 6.503906 58.964844 18.816406 85.414062zm0 0"/><path d="m163.050781 113.386719-24.460937 29.511719 64.667968 22.617187-8.183593-31.851563zm0 0"/><path d="m422.414062 146.667969c-15.144531-52.730469-51.179687-96.707031-98.539062-122.347657l-14.265625 117.867188 35.59375 44.289062zm0 0"/><path d="m134.367188 196.578125c6.785156 2.152344 11.777343 8.132813 13.195312 15.71875l14.667969 59.292969.101562.699218c.828125 5.550782-.3125 11.15625-3.152343 15.625h69.546874l24.621094-21.425781c3.839844-4.042969 9.703125-6.234375 16.566406-6.132812l.890626.019531 33.191406 4.542969c7.324218.429687 14.175781 3.839843 18.929687 9.460937l.898438 1.0625 7.105469 12.472656h80.492187c12.324219-26.4375 18.816406-55.46875 18.816406-85.414062 0-8.5625-.53125-16.996094-1.570312-25.277344l-78.890625 40.664063c-2.453125 1.292969-5.074219 1.921875-7.695313 1.921875-5.070312 0-10.152343-2.339844-13.996093-6.753906l-.390626-.460938-43.375-53.960938c-4.210937-5.019531-6.605468-12.59375-4.582031-19.425781l15.457031-127.652343c-21.109374-7.484376-43.820312-11.554688-67.457031-11.554688-99.523437 0-182.496093 72.148438-199.363281 166.898438l105.742188 29.601562zm73.710937 57.144531c-.050781.480469-.121094.96875-.21875 1.449219-.089844.480469-.210937.960937-.359375 1.429687-.140625.460938-.3125.933594-.492188 1.382813-.191406.449219-.398437.898437-.628906 1.328125-.230468.433594-.480468.851562-.75 1.261719-.269531.410156-.570312.800781-.882812 1.179687-.308594.382813-.640625.75-.988282 1.101563-.339843.339843-.710937.679687-1.089843.992187-.382813.308594-.78125.597656-1.191407.867188-.402343.273437-.832031.53125-1.261718.761718-.429688.230469-.871094.441407-1.328125.621094-.453125.191406-.910157.359375-1.382813.5-.460937.140625-.941406.257813-1.421875.359375-.476562.101563-.96875.171875-1.457031.21875-.492188.050781-.980469.070313-1.472656.070313-.488282 0-.988282-.019532-1.480469-.070313-.480469-.046875-.96875-.117187-1.449219-.21875-.480468-.101562-.960937-.21875-1.433594-.359375-.457031-.140625-.929687-.308594-1.378906-.5-.449218-.179687-.898437-.390625-1.332031-.621094-.429687-.230468-.847656-.488281-1.257813-.761718-.410156-.269532-.8125-.558594-1.179687-.867188-.390625-.3125-.753906-.652344-1.101563-.992187-.351562-.351563-.679687-.71875-.992187-1.101563-.308594-.378906-.597656-.769531-.871094-1.179687-.269531-.410157-.527343-.828125-.757812-1.261719-.230469-.429688-.441407-.878906-.621094-1.328125-.191406-.449219-.359375-.921875-.5-1.382813-.140625-.46875-.261719-.949218-.359375-1.429687-.101562-.480469-.171875-.96875-.222656-1.449219-.046875-.492187-.066406-.992187-.066406-1.480468 0-.492188.019531-.980469.066406-1.472657.050781-.488281.121094-.980469.222656-1.460937.097656-.476563.21875-.957032.359375-1.417969.140625-.472656.308594-.929687.5-1.390625.179687-.449219.390625-.890625.621094-1.320312.230469-.429688.488281-.863282.757812-1.261719.273438-.410157.5625-.808594.871094-1.191407.3125-.378906.640625-.75.992187-1.089843.347657-.351563.710938-.679688 1.089844-.988281.378906-.3125.78125-.613282 1.191406-.882813.410157-.269531.828126-.519531 1.257813-.75.433594-.230469.882813-.441406 1.332031-.628906.449219-.179688.910156-.351563 1.378906-.492188.472657-.148437.953126-.269531 1.433594-.359375.480469-.101562.96875-.167968 1.449219-.21875.980469-.101562 1.972656-.101562 2.953125 0 .488281.050782.980469.117188 1.457031.21875.480469.089844.960938.210938 1.421875.359375.472656.140625.929688.3125 1.382813.492188.457031.1875.898437.398437 1.328125.628906.429687.230469.859375.480469 1.261718.75.410157.269531.808594.570313 1.191407.882813.378906.308593.75.636718 1.089843.988281.347657.339843.679688.710937.988282 1.089843.3125.382813.613281.78125.882812 1.191407.269532.398437.519532.832031.75 1.261719.230469.429687.4375.871093.628906 1.320312.179688.460938.351563.917969.492188 1.390625.148438.460937.269531.941406.359375 1.417969.097656.480468.167969.972656.21875 1.460937.050781.492188.082031.980469.082031 1.472657 0 .488281-.03125.988281-.082031 1.480468zm26.929687-162.445312c.050782-.480469.132813-.972656.222657-1.453125.097656-.476563.21875-.957031.359375-1.429688.140625-.460937.308594-.929687.5-1.378906.179687-.449219.390625-.902344.621094-1.332031.230468-.429688.488281-.847656.757812-1.257813.273438-.410156.5625-.800781.871094-1.183593.3125-.378907.640625-.75.992187-1.097657.347657-.339843.71875-.683593 1.101563-.992187.367187-.308594.769531-.601563 1.179687-.871094.410157-.269531.828125-.519531 1.257813-.75.433594-.230469.882812-.4375 1.332031-.628906s.921875-.351563 1.378906-.5c.472657-.140625.953125-.261719 1.433594-.359375.480469-.089844.96875-.171875 1.449219-.222657.980468-.089843 1.980468-.089843 2.953125 0 .488281.050782.980469.132813 1.457031.222657.480469.097656.960938.21875 1.421875.359375.46875.148437.929687.308594 1.390625.5.449219.191406.890625.398437 1.320312.628906.429688.230469.859376.480469 1.261719.75.410157.269531.808594.5625 1.191407.871094.378906.308594.75.652344 1.089843.992187.347657.347657.679688.71875.988281 1.097657.3125.382812.613282.773437.882813 1.183593.269531.410157.519531.828125.75 1.257813.230469.429687.4375.882812.628906 1.332031.179688.449219.351563.917969.492188 1.378906.148437.472657.269531.953125.359375 1.429688.097656.480469.167968.972656.21875 1.453125.050781.488281.082031.988281.082031 1.480468 0 .488282-.03125.980469-.082031 1.46875-.050782.492188-.121094.980469-.21875 1.460938-.089844.480469-.210938.960938-.359375 1.421875-.140625.46875-.3125.941406-.492188 1.390625-.191406.449219-.398437.890625-.628906 1.320312-.230469.441407-.480469.859376-.75 1.269532-.269531.402344-.570313.800781-.882813 1.179687-.308593.382813-.640624.75-.988281 1.09375-.339843.347657-.710937.6875-1.089843 1-.382813.308594-.78125.597657-1.191407.867188-.402343.273437-.832031.523437-1.261719.753906-.429687.226563-.871093.4375-1.328124.628906-.453126.191407-.914063.351563-1.382813.5-.460937.140625-.941406.261719-1.421875.359375-.476562.089844-.96875.171875-1.457031.21875-.480469.050782-.980469.070313-1.472657.070313-.488281 0-.988281-.019531-1.480468-.070313-.480469-.046875-.96875-.128906-1.449219-.21875-.480469-.097656-.960937-.21875-1.433594-.359375-.457031-.148437-.929687-.308593-1.378906-.5-.449219-.191406-.898437-.402343-1.332031-.628906-.429688-.230469-.847656-.480469-1.257813-.753906-.410156-.269531-.8125-.558594-1.179687-.867188-.382813-.3125-.753906-.652343-1.101563-1-.351562-.34375-.679687-.710937-.992187-1.09375-.308594-.378906-.597656-.777343-.871094-1.179687-.269531-.410156-.527344-.828125-.757812-1.269532-.230469-.429687-.441407-.871093-.621094-1.320312-.191406-.449219-.359375-.921875-.5-1.390625-.140625-.460937-.261719-.941406-.359375-1.421875-.089844-.480469-.171875-.96875-.222657-1.460938-.046874-.488281-.066406-.980468-.066406-1.46875 0-.492187.019532-.992187.066406-1.480468zm-31.109374-23.339844c.039062-.480469.117187-.96875.21875-1.449219.089843-.480469.210937-.960937.359374-1.433593.140626-.457032.300782-.929688.492188-1.378907.1875-.449219.398438-.902343.628906-1.332031.230469-.429688.480469-.847656.75-1.257812.269532-.410157.570313-.800782.871094-1.183594.320312-.378906.648438-.75 1-1.097656.339844-.339844.710938-.679688 1.089844-.992188.378906-.308594.78125-.597656 1.191406-.871094.398438-.269531.828125-.527344 1.261719-.757812.429687-.230469.867187-.441406 1.320312-.621094.457031-.191406.917969-.359375 1.390625-.5.457032-.140625.9375-.261719 1.417969-.359375.480469-.089844.972656-.171875 1.460937-.222656 4.441407-.4375 8.945313 1.183593 12.085938 4.324219.339844.347656.679688.71875.988281 1.097656.3125.382812.601563.773437.871094 1.183594.269531.410156.53125.828124.75 1.257812.230469.429688.441406.882812.632813 1.332031.1875.449219.347656.921875.5 1.378907.140624.472656.257812.953124.359374 1.433593.089844.480469.171876.96875.21875 1.449219.042969.488281.070313.988281.070313 1.480469 0 3.953125-1.601563 7.824219-4.390625 10.605469-2.792969 2.800781-6.664062 4.402343-10.613281 4.402343-.492188 0-.980469-.03125-1.472657-.082031-.488281-.050781-.980468-.121094-1.460937-.21875-.480469-.089844-.960937-.210938-1.417969-.359375-.472656-.140625-.933594-.3125-1.390625-.492187-.453125-.191407-.890625-.398438-1.320312-.628907-.433594-.230469-.863281-.480469-1.261719-.75-.410156-.273437-.8125-.570312-1.191406-.882812-.378906-.308594-.75-.640625-1.089844-.988281-2.800781-2.792969-4.402344-6.652344-4.402344-10.605469 0-.492188.03125-.992188.082032-1.480469zm-103.824219 88.046875c-1.96875-4.453125-1.75-9.644531.582031-13.917969l.691406-1.269531 46.246094-55.792969c2.121094-2.761718 5.121094-4.773437 8.535156-5.652344 4.179688-1.078124 8.691406-.378906 12.355469 1.941407l47.597656 30.152343c4.011719 2.539063 6.542969 6.710938 7.152344 11.203126l17.039063 66.328124-1.652344 4.421876c-2.332032 6.230468-8.304688 10.203124-14.726563 10.203124-1.191406 0-2.402343-.140624-3.601562-.417968l-.769531-.183594-109.996094-38.472656c-4.179688-1.382813-7.652344-4.503906-9.453125-8.542969zm0 0"/><path d="m433.445312 317.929688h-414.242187c-10.589844 0-19.203125 8.613281-19.203125 19.203124v155.664063c0 10.589844 8.613281 19.203125 19.203125 19.203125h414.242187c10.589844 0 19.203126-8.613281 19.203126-19.203125v-155.664063c0-10.589843-8.613282-19.203124-19.203126-19.203124zm-273.914062 70.941406-25.84375 64.613281c-1.234375 3.019531-4.589844 4.53125-10.070312 4.53125-6.042969 0-9.625-1.511719-10.742188-4.53125l-11.074219-29.203125-11.078125 29.203125c-1.117187 3.019531-4.757812 4.53125-10.90625 4.53125-5.371094 0-8.671875-1.511719-9.902344-4.53125l-25.847656-64.613281c-.558594-1.453125-.835937-2.628906-.835937-3.523438 0-2.796875 1.929687-5.230468 5.789062-7.300781s7.636719-3.105469 11.328125-3.105469c3.914063 0 6.316406 1.34375 7.214844 4.027344l14.9375 42.625 10.742188-36.082031c1.003906-3.355469 3.859374-5.03125 8.558593-5.03125s7.550781 1.675781 8.558594 5.03125l10.742187 36.082031 14.9375-42.625c.894532-2.6875 3.242188-4.027344 7.046876-4.027344 3.691406 0 7.46875 1.0625 11.328124 3.1875 3.859376 2.128906 5.789063 4.644532 5.789063 7.554688 0 1.230468-.226563 2.292968-.671875 3.1875zm124.523438 0-25.84375 64.613281c-1.230469 3.019531-4.589844 4.53125-10.070313 4.53125-6.039063 0-9.621094-1.511719-10.738281-4.53125l-11.078125-29.203125-11.074219 29.203125c-1.121094 3.019531-4.757812 4.53125-10.910156 4.53125-5.367188 0-8.671875-1.511719-9.902344-4.53125l-25.84375-64.613281c-.5625-1.453125-.839844-2.628906-.839844-3.523438 0-2.796875 1.929688-5.230468 5.789063-7.300781 3.863281-2.070313 7.636719-3.105469 11.332031-3.105469 3.914062 0 6.316406 1.34375 7.214844 4.027344l14.9375 42.625 10.738281-36.082031c1.007813-3.355469 3.859375-5.03125 8.558594-5.03125 4.703125 0 7.554687 1.675781 8.5625 5.03125l10.738281 36.082031 14.9375-42.625c.894531-2.6875 3.246094-4.027344 7.050781-4.027344 3.691407 0 7.46875 1.0625 11.328125 3.1875 3.859375 2.128906 5.789063 4.644532 5.789063 7.554688 0 1.230468-.226563 2.292968-.675781 3.1875zm124.527343 0-25.84375 64.613281c-1.234375 3.019531-4.589843 4.53125-10.070312 4.53125-6.042969 0-9.621094-1.511719-10.742188-4.53125l-11.074219-29.203125-11.074218 29.203125c-1.121094 3.019531-4.757813 4.53125-10.910156 4.53125-5.371094 0-8.671876-1.511719-9.902344-4.53125l-25.84375-64.613281c-.5625-1.453125-.839844-2.628906-.839844-3.523438 0-2.796875 1.929688-5.230468 5.789062-7.300781 3.859376-2.070313 7.636719-3.105469 11.328126-3.105469 3.914062 0 6.320312 1.34375 7.21875 4.027344l14.933593 42.625 10.742188-36.082031c1.007812-3.355469 3.859375-5.03125 8.558593-5.03125 4.699219 0 7.554688 1.675781 8.558594 5.03125l10.742188 36.082031 14.9375-42.625c.894531-2.6875 3.242187-4.027344 7.050781-4.027344 3.691406 0 7.464844 1.0625 11.324219 3.1875 3.859375 2.128906 5.792968 4.644532 5.792968 7.554688-.003906 1.230468-.230468 2.292968-.675781 3.1875zm0 0"/></svg>